<svg width="280" height="614" viewBox="0 0 280 614" fill="none" xmlns="http://www.w3.org/2000/svg">
<g filter="url(#filter0_d_131_882)">
<path d="M4 279.161C4 172.078 52.5217 70.7621 135.953 3.63571V3.63571C138.59 1.51444 142.349 1.52082 144.979 3.65102V3.65102C227.856 70.7963 276 171.762 276 278.426V580.141C276 592.213 266.213 602 254.141 602H25.7681C13.7459 602 4 592.254 4 580.232V279.161Z" fill="url(#paint0_linear_131_882)"/>
<path fill-rule="evenodd" clip-rule="evenodd" d="M141.222 22.4323C112.583 43.9128 48.2959 108.05 35.9174 195.821L33.4238 221.797C40.346 208.338 63.425 189.797 83.2957 180.335C97.2598 185.83 131.449 210.863 137.557 227.585C143.665 210.863 170.571 188.328 192.515 181.834C213.461 188.827 237.724 208.824 244.647 222.283L242.203 196.996C229.825 109.225 169.86 43.9128 141.222 22.4323Z" fill="url(#paint1_linear_131_882)"/>
<path fill-rule="evenodd" clip-rule="evenodd" d="M156.048 116.409C156.048 116.804 156.034 117.196 156.006 117.584C156.178 117.579 156.351 117.576 156.525 117.576C165.388 117.576 172.574 124.773 172.574 133.652C172.574 142.53 165.388 149.727 156.525 149.727C156.357 149.727 156.19 149.725 156.024 149.72C155.561 158.182 148.563 164.901 139.999 164.901C131.435 164.901 124.438 158.182 123.975 149.72C123.808 149.725 123.641 149.727 123.474 149.727C114.61 149.727 107.425 142.53 107.425 133.652C107.425 124.773 114.61 117.576 123.474 117.576C123.647 117.576 123.82 117.579 123.992 117.584C123.964 117.196 123.95 116.804 123.95 116.409C123.95 107.531 131.136 100.333 139.999 100.333C148.863 100.333 156.048 107.531 156.048 116.409Z" fill="url(#paint2_linear_131_882)"/>
<path fill-rule="evenodd" clip-rule="evenodd" d="M164.074 108.948C164.074 109.541 164.052 110.129 164.01 110.711C164.269 110.703 164.528 110.699 164.788 110.699C178.084 110.699 188.862 121.495 188.862 134.812C188.862 148.13 178.084 158.926 164.788 158.926C164.537 158.926 164.287 158.922 164.037 158.914C163.343 171.608 152.847 181.686 140 181.686C127.154 181.686 116.658 171.608 115.963 158.914C115.714 158.922 115.463 158.926 115.211 158.926C101.916 158.926 91.1377 148.13 91.1377 134.812C91.1377 121.495 101.916 110.699 115.211 110.699C115.472 110.699 115.731 110.703 115.99 110.711C115.948 110.129 115.927 109.541 115.927 108.948C115.927 95.6307 126.705 84.8347 140 84.8347C153.296 84.8347 164.074 95.6307 164.074 108.948Z" fill="url(#paint3_linear_131_882)"/>
<path fill-rule="evenodd" clip-rule="evenodd" d="M152.182 118.266C152.182 119.299 152.056 120.303 151.819 121.263C152.604 121.107 153.417 121.025 154.249 121.025C161.094 121.025 166.643 126.583 166.643 133.439C166.643 140.296 161.094 145.854 154.249 145.854C153.51 145.854 152.787 145.79 152.084 145.666C152.149 146.179 152.182 146.703 152.182 147.234C152.182 154.09 146.633 159.649 139.788 159.649C132.943 159.649 127.394 154.09 127.394 147.234C127.394 146.703 127.427 146.179 127.491 145.666C126.789 145.79 126.066 145.854 125.328 145.854C118.483 145.854 112.934 140.296 112.934 133.439C112.934 126.583 118.483 121.025 125.328 121.025C126.159 121.025 126.972 121.107 127.757 121.263C127.52 120.303 127.394 119.299 127.394 118.266C127.394 111.409 132.943 105.851 139.788 105.851C146.633 105.851 152.182 111.409 152.182 118.266Z" fill="url(#paint4_linear_131_882)"/>
<path fill-rule="evenodd" clip-rule="evenodd" d="M146.752 124.751C146.752 125.358 146.678 125.947 146.538 126.511C147 126.419 147.477 126.371 147.965 126.371C151.984 126.371 155.241 129.634 155.241 133.659C155.241 137.684 151.984 140.947 147.965 140.947C147.532 140.947 147.107 140.909 146.694 140.836C146.732 141.137 146.752 141.445 146.752 141.756C146.752 145.782 143.494 149.044 139.476 149.044C135.458 149.044 132.2 145.782 132.2 141.756C132.2 141.445 132.22 141.138 132.258 140.836C131.845 140.909 131.421 140.947 130.988 140.947C126.969 140.947 123.712 137.684 123.712 133.659C123.712 129.634 126.969 126.371 130.988 126.371C131.476 126.371 131.953 126.419 132.414 126.511C132.274 125.947 132.2 125.358 132.2 124.751C132.2 120.726 135.458 117.463 139.476 117.463C143.494 117.463 146.752 120.726 146.752 124.751Z" fill="transparent"/>
<path fill-rule="evenodd" clip-rule="evenodd" d="M241.182 247.059L211.422 263.081L244.103 280.676L244.517 280.453C244.506 272.304 244.5 266.892 244.5 265C244.5 259.517 243.322 253.347 241.182 247.059ZM244.546 301.86L244.103 301.622L211.422 319.216L244.103 336.811L244.596 336.545C244.577 323.691 244.56 311.96 244.546 301.86ZM244.627 358.039L244.103 357.757L211.422 375.351L244.103 392.946L244.679 392.636C244.661 380.735 244.644 369.117 244.627 358.039ZM244.712 414.22L244.103 413.892L211.422 431.486L244.103 449.081L244.764 448.725C244.747 437.252 244.729 425.678 244.712 414.22ZM244.798 470.401L244.103 470.027L211.422 487.622L244.103 505.216L244.851 504.814C244.834 493.771 244.816 482.217 244.798 470.401ZM244.884 526.583L244.103 526.162L211.422 543.757L244.103 561.351L244.938 560.902C244.922 550.813 244.904 539.217 244.884 526.583ZM160.004 234.595L192.685 217L225.366 234.595L192.685 252.189L160.004 234.595ZM160.004 290.73L192.685 273.135L225.366 290.73L192.685 308.324L160.004 290.73ZM140.396 245.486L107.715 263.081L140.396 280.676L173.076 263.081L140.396 245.486ZM107.715 319.216L140.396 301.622L173.076 319.216L140.396 336.811L107.715 319.216ZM140.396 357.757L107.715 375.351L140.396 392.946L173.076 375.351L140.396 357.757ZM107.715 431.486L140.396 413.892L173.076 431.486L140.396 449.081L107.715 431.486ZM140.396 470.027L107.715 487.622L140.396 505.216L173.076 487.622L140.396 470.027ZM107.715 543.757L140.396 526.162L173.076 543.757L140.396 561.351L107.715 543.757ZM192.685 329.27L160.004 346.865L192.685 364.459L225.366 346.865L192.685 329.27ZM160.004 403L192.685 385.405L225.366 403L192.685 420.595L160.004 403ZM192.685 441.541L160.004 459.135L192.685 476.73L225.366 459.135L192.685 441.541ZM160.004 515.27L192.685 497.676L225.366 515.27L192.685 532.865L160.004 515.27ZM192.685 553.811L160.004 571.405L192.685 589L225.366 571.405L192.685 553.811Z" fill="transparent"/>
<path fill-rule="evenodd" clip-rule="evenodd" d="M36.4858 280.242C36.4953 272.768 36.5006 267.797 36.5006 266C36.5006 260.433 37.7153 254.157 39.919 247.768L68.3615 263.081L36.4858 280.242ZM36.407 336.42C36.4257 323.658 36.4425 312.029 36.4564 302.039L68.3615 319.216L36.407 336.42ZM36.3234 392.6C36.3413 380.736 36.3586 369.16 36.375 358.13L68.3615 375.351L36.3234 392.6ZM36.238 448.781C36.2556 437.284 36.2732 425.691 36.2907 414.22L68.3615 431.486L36.238 448.781ZM36.1516 504.963C36.1688 493.837 36.1867 482.201 36.205 470.309L68.3615 487.622L36.1516 504.963ZM36.0645 561.145C36.0804 550.918 36.0986 539.176 36.1184 526.398L68.3615 543.757L36.0645 561.145ZM55.2896 234.595L87.9703 217L120.651 234.595L87.9703 252.189L55.2896 234.595ZM55.2896 290.73L87.9703 273.135L120.651 290.73L87.9703 308.324L55.2896 290.73ZM87.9703 329.27L55.2896 346.865L87.9703 364.459L120.651 346.865L87.9703 329.27ZM55.2896 403L87.9703 385.405L120.651 403L87.9703 420.595L55.2896 403ZM87.9703 441.541L55.2896 459.135L87.9703 476.73L120.651 459.135L87.9703 441.541ZM55.2896 515.27L87.9703 497.676L120.651 515.27L87.9703 532.865L55.2896 515.27ZM87.9703 553.811L55.2896 571.405L87.9703 589L120.651 571.405L87.9703 553.811Z" fill="transparent"/>
<path fill-rule="evenodd" clip-rule="evenodd" d="M144.498 247.695L173.076 263.081L141 280.35V301.947L173.076 319.216L141 336.485V358.082L173.076 375.351L141 392.621V414.217L173.076 431.486L141 448.756V470.352L173.076 487.622L141 504.891V526.488L173.076 543.757L141 561.026V605.314H244.609V561.079L244.103 561.351L211.422 543.757L244.103 526.162L244.609 526.435V504.944L244.103 505.216L211.422 487.622L244.103 470.027L244.609 470.299V448.809L244.103 449.081L211.422 431.486L244.103 413.892L244.609 414.164V392.674L244.103 392.946L211.422 375.351L244.103 357.757L244.609 358.029V336.538L244.103 336.811L211.422 319.216L244.103 301.622L244.609 301.894V280.403L244.103 280.676L211.422 263.081L240.952 247.183C235.789 230.707 225.359 216.118 210.928 205.871L192.804 193L174.68 205.871C160.1 216.225 149.604 231.01 144.498 247.695ZM160.004 234.595L192.685 217L225.366 234.595L192.685 252.189L160.004 234.595ZM160.004 290.73L192.685 273.135L225.366 290.73L192.685 308.324L160.004 290.73ZM192.685 329.27L160.004 346.865L192.685 364.459L225.366 346.865L192.685 329.27ZM160.004 403L192.685 385.405L225.366 403L192.685 420.595L160.004 403ZM192.685 441.541L160.004 459.135L192.685 476.73L225.366 459.135L192.685 441.541ZM160.004 515.27L192.685 497.676L225.366 515.27L192.685 532.865L160.004 515.27ZM192.685 553.811L160.004 571.405L192.685 589L225.366 571.405L192.685 553.811Z" fill="url(#paint5_linear_131_882)"/>
<path fill-rule="evenodd" clip-rule="evenodd" d="M39.4984 247.695L68.0762 263.081L36 280.35V301.947L68.0762 319.216L36 336.485V358.082L68.0762 375.351L36 392.621V414.217L68.0762 431.486L36 448.756V470.352L68.0762 487.622L36 504.891V526.488L68.0762 543.757L36 561.026V605.314H139.609V561.079L139.103 561.351L106.422 543.757L139.103 526.162L139.609 526.435V504.944L139.103 505.216L106.422 487.622L139.103 470.027L139.609 470.299V448.809L139.103 449.081L106.422 431.486L139.103 413.892L139.609 414.164V392.674L139.103 392.946L106.422 375.351L139.103 357.757L139.609 358.029V336.538L139.103 336.811L106.422 319.216L139.103 301.622L139.609 301.894V280.403L139.103 280.676L106.422 263.081L135.952 247.183C130.789 230.707 120.359 216.118 105.928 205.871L87.8043 193L69.6803 205.871C55.1 216.225 44.6039 231.01 39.4984 247.695ZM55.0043 234.595L87.6849 217L120.366 234.595L87.6849 252.189L55.0043 234.595ZM55.0043 290.73L87.6849 273.135L120.366 290.73L87.6849 308.324L55.0043 290.73ZM87.6849 329.27L55.0043 346.865L87.6849 364.459L120.366 346.865L87.6849 329.27ZM55.0043 403L87.6849 385.405L120.366 403L87.6849 420.595L55.0043 403ZM87.6849 441.541L55.0043 459.135L87.6849 476.73L120.366 459.135L87.6849 441.541ZM55.0043 515.27L87.6849 497.676L120.366 515.27L87.6849 532.865L55.0043 515.27ZM87.6849 553.811L55.0043 571.405L87.6849 589L120.366 571.405L87.6849 553.811Z" fill="url(#paint6_linear_131_882)"/>
</g>
<defs>
<filter id="filter0_d_131_882" x="0" y="0" width="280" height="613.314" filterUnits="userSpaceOnUse" color-interpolation-filters="sRGB">
<feFlood flood-opacity="0" result="BackgroundImageFix"/>
<feColorMatrix in="SourceAlpha" type="matrix" values="0 0 0 0 0 0 0 0 0 0 0 0 0 0 0 0 0 0 127 0" result="hardAlpha"/>
<feOffset dy="4"/>
<feGaussianBlur stdDeviation="2"/>
<feComposite in2="hardAlpha" operator="out"/>
<feColorMatrix type="matrix" values="0 0 0 0 0 0 0 0 0 0 0 0 0 0 0 0 0 0 0.25 0"/>
<feBlend mode="normal" in2="BackgroundImageFix" result="effect1_dropShadow_131_882"/>
<feBlend mode="normal" in="SourceGraphic" in2="effect1_dropShadow_131_882" result="shape"/>
</filter>
<linearGradient id="paint0_linear_131_882" x1="140" y1="0" x2="140" y2="602" gradientUnits="userSpaceOnUse">
<stop stop-color="#1D1D1D"/>
<stop offset="1" stop-color="#3C3C3C" stop-opacity="0"/>
</linearGradient>
<linearGradient id="paint1_linear_131_882" x1="147.711" y1="-50.9621" x2="373.192" y2="133.158" gradientUnits="userSpaceOnUse">
<stop/>
<stop offset="1" stop-color="#454545" stop-opacity="0"/>
</linearGradient>
<linearGradient id="paint2_linear_131_882" x1="167.105" y1="77.1056" x2="101.954" y2="181.174" gradientUnits="userSpaceOnUse">
<stop stop-color="#222222"/>
<stop offset="1" stop-color="#646464" stop-opacity="0"/>
</linearGradient>
<linearGradient id="paint3_linear_131_882" x1="180.658" y1="49.9931" x2="82.9326" y2="206.096" gradientUnits="userSpaceOnUse">
<stop stop-color="#222222"/>
<stop offset="1" stop-color="#646464" stop-opacity="0"/>
</linearGradient>
<linearGradient id="paint4_linear_131_882" x1="141.994" y1="86.6046" x2="200.733" y2="133.114" gradientUnits="userSpaceOnUse">
<stop/>
<stop offset="1" stop-color="#454545" stop-opacity="0"/>
</linearGradient>
<linearGradient id="paint5_linear_131_882" x1="235.911" y1="44.673" x2="-81.7896" y2="171.057" gradientUnits="userSpaceOnUse">
<stop stop-color="#222222"/>
<stop offset="1" stop-color="#646464" stop-opacity="0"/>
</linearGradient>
<linearGradient id="paint6_linear_131_882" x1="130.911" y1="44.673" x2="-186.79" y2="171.057" gradientUnits="userSpaceOnUse">
<stop stop-color="#222222"/>
<stop offset="1" stop-color="#646464" stop-opacity="0"/>
</linearGradient>
</defs>
</svg>
