<svg width="343" height="72" viewBox="0 0 343 72" fill="none" xmlns="http://www.w3.org/2000/svg">
<path d="M82.9367 61.0133L79.9208 58.88L78.8437 60.3733C77.8384 60.16 76.9768 59.6622 76.2587 58.88C75.5406 58.0267 75.1816 57.1022 75.1816 56.1067V13.6533C76.1869 13.2267 77.1204 12.48 77.9821 11.4133C78.8437 10.2756 79.3105 9.20889 79.3823 8.21334L79.49 8.10666V7.57334L79.5977 7.36V5.54667C78.9514 5.97334 78.4847 6.18668 78.1975 6.18668L78.0898 6.29334H77.7666C77.3358 6.50667 76.8691 6.61334 76.3664 6.61334H76.0433C73.53 5.33334 70.8732 3.12889 68.0727 0C63.2617 5.40445 59.5636 8.10666 56.9786 8.10666H56.7632V0.640005H52.8856V8.32001C49.3671 8.10667 46.0281 5.36888 42.8686 0.106659L17.0182 13.12C13.8587 14.8267 12.2789 16.8533 12.2789 19.2V29.5467L8.18596 29.76C7.82693 29.76 7.10886 30.08 6.03176 30.72C3.51853 32.2133 2.26191 34.3111 2.26191 37.0133C2.26191 38.8622 2.72865 40.4622 3.66214 41.8133C4.88285 43.4489 6.39079 44.2667 8.18596 44.2667H8.50909L8.6168 44.16H9.15535L8.93993 43.0933L8.72451 42.88C8.72451 42.5956 8.68861 42.3822 8.6168 42.24C8.6168 41.1022 9.26306 40.4622 10.5556 40.32L10.6633 40.4267H10.9864L11.2018 40.5333H11.3096C11.884 40.8178 12.1353 40.96 12.0635 40.96L12.2789 41.1733V52.9067C12.2789 53.9022 11.7045 54.9689 10.5556 56.1067H10.4479L9.37077 57.1733H10.3402V57.28H10.9864C12.1353 57.28 13.3201 57.1022 14.5409 56.7467C15.8334 56.32 17.0182 55.7867 18.0953 55.1467C19.2442 54.5067 20.2854 53.76 21.2189 52.9067C22.1524 52.0533 22.9063 51.1289 23.4808 50.1333C23.8398 49.4222 24.0911 48.7822 24.2348 48.2133C24.3784 47.6444 24.4502 47.1111 24.4502 46.6133V15.68C24.4502 15.3245 24.5579 15.04 24.7733 14.8267C24.7733 14.6133 24.881 14.4 25.0964 14.1867V14.08L25.4196 13.8667L25.5273 13.76L27.7892 12.48V57.4933C27.7892 58.2756 27.3224 59.0578 26.389 59.84C25.5273 60.5511 24.7374 60.9067 24.0193 60.9067C23.8757 60.9067 23.5167 60.6222 22.9422 60.0533V60.9067C22.0806 60.9067 21.3266 60.6933 20.6803 60.2667C20.3213 60.1245 20.1059 60.0533 20.0341 60.0533C20.0341 59.9822 19.8545 59.8756 19.4955 59.7333C17.9876 59.1644 16.5873 58.7378 15.2948 58.4533C14.0741 58.1689 12.9611 58.0267 11.9558 58.0267C8.22186 58.0267 5.27779 59.3067 3.12359 61.8667C1.0412 64.3556 0 67.6267 0 71.68C1.65155 69.4044 3.80575 68.2667 6.4626 68.2667C7.25247 68.2667 9.08354 68.7289 11.9558 69.6534V69.8667C12.8893 69.8667 14.11 70.1155 15.618 70.6133C17.4849 71.1822 18.7774 71.4667 19.4955 71.4667C24.1629 71.4667 27.7892 69.0133 30.3742 64.1067C31.3795 62.1156 31.8822 60.5511 31.8822 59.4134V40.7467H37.9139V58.9867C35.6161 60.5511 33.6414 62.8267 31.9899 65.8133H32.0976C31.8822 66.1689 31.7026 66.5245 31.559 66.88C31.4872 67.2356 31.4513 67.52 31.4513 67.7333C32.7438 67.3067 33.8928 66.9867 34.898 66.7733C35.9751 66.4889 36.9445 66.3467 37.8062 66.3467C41.1093 66.3467 44.3765 68.16 47.6078 71.7867L60.6407 61.8667L58.0557 58.9867L56.7632 60.16V40.7467H62.9027V55.8933C62.9027 66.4889 66.7802 71.7867 74.5353 71.7867H74.9662L82.9367 61.0133ZM52.3471 58.24L52.2394 58.1333C51.9521 58.1333 51.7726 58.0978 51.7008 58.0267C51.3418 57.8845 50.9827 57.7778 50.6237 57.7067C50.2647 57.5644 49.9056 57.4578 49.5466 57.3867V14.5067H49.6543C49.9415 14.5067 50.157 14.4711 50.3006 14.4C51.0905 14.4 51.9162 14.2222 52.7779 13.8667V58.3467C52.6343 58.3467 52.5266 58.3467 52.4548 58.3467C52.4548 58.2756 52.4189 58.24 52.3471 58.24ZM33.6055 10.7733L33.8209 10.88V10.7733C35.1135 11.84 35.9392 12.3733 36.2983 12.3733H36.1906C36.3342 12.4444 36.4778 12.5156 36.6214 12.5867C36.8368 12.6578 37.0881 12.7289 37.3754 12.8C37.4472 12.8711 37.519 12.9067 37.5908 12.9067C37.6626 12.9067 37.7703 12.9778 37.9139 13.12V29.44H31.8822V10.3467L32.8516 10.1333C32.9952 10.2756 33.1029 10.4178 33.1747 10.56C33.3183 10.6311 33.4619 10.7022 33.6055 10.7733ZM56.8709 12.0533C57.2299 12.0533 57.6249 11.7689 58.0557 11.2C59.2764 12.6222 60.8921 13.5111 62.9027 13.8667V29.44H56.7632V12.16L56.8709 12.0533Z" fill="black"/>
<path d="M125.807 62.08H124.622L124.514 62.1867C123.007 62.1156 121.75 61.6889 120.745 60.9067C119.739 60.0533 119.237 58.9511 119.237 57.6V35.52C122.324 33.7422 123.868 31.3244 123.868 28.2667V27.4133C121.929 28.0533 120.565 28.3733 119.775 28.3733C118.052 28.3733 116.257 27.2356 114.39 24.96V25.0667C114.102 24.7822 113.851 24.5333 113.636 24.32C113.492 24.0356 113.456 23.8933 113.528 23.8933C113.456 23.8222 113.42 23.4667 113.42 22.8267C112.846 23.3956 112.487 23.7511 112.343 23.8933C112.271 24.0356 112.164 24.2133 112.02 24.4267L111.912 24.64C108.968 28.48 106.778 30.4 105.342 30.4C105.198 30.4 105.055 30.3289 104.911 30.1867L104.373 30.4H104.588C103.296 30.4 102.039 29.6178 100.818 28.0533V28.16C100.459 27.5911 99.9566 26.88 99.3103 26.0267C98.6641 25.1022 98.1614 24.4622 97.8024 24.1067L97.6947 23.8933L97.1561 23.2533C94.0684 26.9511 89.9395 29.7244 84.7695 31.5733C86.2774 33.2089 87.3904 34.24 88.1085 34.6667H88.0008C88.8625 35.6622 89.6164 36.5867 90.2627 37.44C90.9807 38.2222 91.627 38.9333 92.2015 39.5733C93.1349 40.5689 93.8171 41.3511 94.2479 41.92C94.7506 42.4178 95.0737 42.7733 95.2173 42.9867C88.6829 47.3956 85.4157 52.4089 85.4157 58.0267C85.4157 59.7333 85.5593 61.0489 85.8466 61.9733C86.2056 63.3956 86.816 64.6756 87.6776 65.8133C88.6111 66.9511 89.7959 68.0178 91.2321 69.0133C94.1761 70.7911 97.192 71.68 100.28 71.68H100.926L108.25 65.4933C108.609 66.2045 109.076 66.8444 109.65 67.4133C110.225 68.0533 110.871 68.7289 111.589 69.44C113.456 71.0044 115.251 71.7867 116.975 71.7867H117.836L117.944 71.68H118.267L118.375 71.5733H118.806L118.914 71.4667H119.021L125.807 62.08ZM105.234 62.5067C102.721 62.5067 100.495 61.44 98.5564 59.3067C96.7612 57.3156 95.8636 54.9333 95.8636 52.16C95.8636 51.3778 96.0072 50.4889 96.2944 49.4933C96.5817 48.4267 97.0843 47.2178 97.8024 45.8667L104.48 53.0133L107.173 50.6667L95.1096 37.12C95.325 37.1911 95.5405 37.2267 95.7559 37.2267C96.0431 37.2267 96.2585 37.2267 96.4022 37.2267H98.6641L98.8795 37.12C101.249 37.12 103.224 36.1244 104.804 34.1333C105.952 35.6267 107.03 36.3733 108.035 36.3733V61.76L107.927 61.8667H107.819C107.245 62.2933 106.383 62.5067 105.234 62.5067Z" fill="black"/>
<path d="M173.898 60.9067H172.498L172.39 61.0133H171.528L171.42 61.12H170.99C168.835 61.12 167.758 60.4089 167.758 58.9867V34.1333C169.697 32.2133 170.667 30.4 170.667 28.6933L170.774 28.48V27.4133L170.882 27.2V25.7067C168.01 26.9156 166.179 27.52 165.389 27.52C163.737 27.52 161.403 25.4578 158.388 21.3333L145.678 31.8933C145.606 29.9022 144.996 28.0178 143.847 26.24C143.344 25.4578 142.662 24.6756 141.8 23.8933C141.01 23.04 140.041 22.1156 138.892 21.12L127.906 32V32.7467H128.444L128.66 32.8533C130.957 32.8533 132.753 33.92 134.045 36.0533V60.0533C131.245 61.6889 129.557 63.8933 128.983 66.6667H130.06L130.168 66.56H130.598L130.706 66.4534H131.245L131.352 66.3467H131.675C135.697 66.3467 139.646 68.16 143.524 71.7867L153.541 64.64C153.038 64 152.464 63.3956 151.817 62.8267C151.243 62.1867 150.561 61.6178 149.771 61.12C149.34 60.7644 148.765 60.4089 148.047 60.0533C147.329 59.6978 146.539 59.3422 145.678 58.9867V36.5867L150.094 33.0667C150.668 33.8489 151.315 34.4889 152.033 34.9867C152.751 35.4845 153.684 35.8756 154.833 36.16H154.725L155.156 36.3733L155.264 36.48H155.479C155.623 36.5511 155.838 36.5867 156.126 36.5867V64.5333C156.126 66.5245 156.987 68.1956 158.711 69.5467C159.644 70.2578 160.614 70.8267 161.619 71.2533C162.624 71.68 163.629 71.9289 164.635 72L173.898 60.9067Z" fill="black"/>
<path d="M200.323 62.8267L199.892 62.08C198.815 62.5067 197.882 62.72 197.092 62.72C194.794 62.72 193.322 62.0444 192.676 60.6933C192.317 59.9822 192.137 59.4133 192.137 58.9867V36.2667C193.142 35.84 194.112 35.1289 195.045 34.1333C195.979 33.0667 196.733 31.7156 197.307 30.08C197.307 29.5111 197.379 29.0133 197.522 28.5867V27.3067C195.727 28.3022 194.578 28.8 194.076 28.8C191.85 28.8 189.265 26.7378 186.321 22.6133V23.8933C186.105 24.1067 185.854 24.32 185.567 24.5333C185.351 24.7467 185.244 24.8533 185.244 24.8533C184.095 25.92 183.125 26.7022 182.335 27.2C180.899 28.4089 179.75 29.44 178.889 30.2933C178.027 31.0756 177.237 31.7867 176.519 32.4267L176.304 32.5333L176.088 32.7467L175.98 32.64L175.657 33.1733L177.165 35.3067L178.673 34.4533C179.248 35.6622 180.073 36.3022 181.151 36.3733V63.2533C181.151 65.4578 182.228 67.4133 184.382 69.12C185.387 69.9733 186.464 70.5778 187.613 70.9333C188.762 71.36 189.911 71.6089 191.06 71.68L200.323 62.8267ZM196.23 14.1867V13.2267H195.476L195.368 13.3333H195.261L195.153 13.44H195.045L194.83 13.6533H194.937C194.578 13.7956 194.255 13.9022 193.968 13.9733C193.753 13.9733 193.465 14.0444 193.106 14.1867C191.096 14.1867 189.157 12.8356 187.29 10.1333C186.5 10.7022 185.746 11.2356 185.028 11.7333C184.382 12.2311 183.807 12.6578 183.305 13.0133C182.946 13.2978 182.551 13.6178 182.12 13.9733C181.761 14.2578 181.474 14.4711 181.258 14.6133L181.474 14.4C180.899 14.6844 180.289 15.0045 179.643 15.36C178.996 15.6445 178.386 16.0711 177.812 16.64L179.212 18.9867L180.935 18.1333C181.581 20.3378 183.269 21.44 185.998 21.44L186.213 21.5467H187.29V21.6533H188.152C189.157 21.6533 190.126 21.44 191.06 21.0133C192.065 20.5867 192.927 20.0533 193.645 19.4133C194.435 18.7022 195.045 17.92 195.476 17.0667C195.979 16.1422 196.23 15.1822 196.23 14.1867Z" fill="black"/>
<path d="M236.519 7.25334H235.657L235.441 7.36H235.657C233.215 7.36 230.846 6.15112 228.548 3.73334C227.974 3.02223 227.507 2.52445 227.148 2.24C226.861 1.88445 226.645 1.63555 226.502 1.49333C220.901 8.17777 215.12 11.52 209.16 11.52C208.801 11.52 208.442 11.52 208.083 11.52C207.724 11.52 207.365 11.4489 207.006 11.3067V12.3733L207.114 12.5867C207.257 12.9422 207.365 13.2622 207.437 13.5467C207.509 13.8311 207.58 14.0444 207.652 14.1867V14.08L207.76 24.7467H207.652C207.006 24.7467 206.647 24.7111 206.575 24.64C205.642 24.64 205.139 24.6044 205.067 24.5333C204.062 24.5333 203.308 24.4267 202.805 24.2133V26.1333L202.913 26.3467V26.9867L203.021 27.3067V30.08C202.949 30.4356 202.913 31.1822 202.913 32.32H203.667L203.882 32.2133C205.821 32.2133 207.114 32.1067 207.76 31.8933V59.2C204.888 60.48 203.021 62.7911 202.159 66.1333C202.59 65.9911 202.985 65.8845 203.344 65.8133C203.775 65.7422 204.17 65.7067 204.529 65.7067L204.744 65.6H204.96C208.981 65.6 213.433 67.6978 218.316 71.8933L229.841 60.9067L227.579 58.7733L225.209 61.2267C224.491 60.7289 223.881 60.3378 223.378 60.0533C222.875 59.7689 222.552 59.5556 222.409 59.4134C221.834 59.4134 221.26 59.2356 220.685 58.88C219.967 58.88 219.393 58.7733 218.962 58.56V32.1067C219.536 32.2489 220.111 32.32 220.685 32.32C221.331 32.32 222.05 32.32 222.839 32.32C222.911 32.32 222.947 32.3556 222.947 32.4267C222.947 32.4267 222.983 32.4267 223.055 32.4267H222.947C223.091 32.4978 223.234 32.5333 223.378 32.5333C223.522 32.5333 223.665 32.5333 223.809 32.5333C225.963 32.96 227.327 33.1733 227.902 33.1733L228.009 33.28H229.41L228.763 32.5333V31.4667L228.656 31.2533V30.72C228.656 29.2978 228.763 27.8756 228.979 26.4533V25.92L229.087 25.7067V25.3867L229.194 25.28V24.32C228.62 24.4622 228.081 24.5689 227.579 24.64C227.148 24.64 226.825 24.64 226.609 24.64C226.107 24.9245 223.593 25.0667 219.07 25.0667L218.962 24.96V12.9067L219.07 12.8H218.962C219.464 12.7289 219.824 12.5867 220.039 12.3733L220.254 12.2667L220.362 12.0533C221.87 13.6178 224.132 14.4 227.148 14.4C227.794 14.4 228.189 14.3645 228.333 14.2933C230.128 14.2222 231.887 13.5822 233.61 12.3733C235.334 11.0933 236.447 9.56444 236.949 7.78666L236.519 7.25334Z" fill="black"/>
<path d="M271.125 39.1467C270.407 38.1511 269.617 36.9778 268.755 35.6267C267.965 34.2044 267.103 32.6756 266.17 31.04C265.165 29.1911 264.375 27.52 263.8 26.0267C263.226 24.5333 262.759 23.1467 262.4 21.8667C255.291 26.56 248.9 28.9067 243.228 28.9067H242.797L242.474 28.8H242.151L242.043 28.6933H241.397L240.427 27.7333V29.2267C241.576 31.7156 242.151 33.4933 242.151 34.56V60.3733C240.714 61.44 239.745 62.2934 239.242 62.9334C239.171 63.0045 238.955 63.2889 238.596 63.7867C238.309 64.2845 237.914 64.9244 237.411 65.7067V65.6C237.268 65.7422 237.124 65.9556 236.981 66.24C236.837 66.4533 236.693 66.7378 236.55 67.0933C237.411 66.9511 238.273 66.8444 239.135 66.7733C239.996 66.6311 240.858 66.56 241.72 66.56C244.018 66.56 246.746 66.88 249.906 67.52C251.773 67.8756 253.424 68.3733 254.86 69.0133C256.297 69.7245 257.769 70.4711 259.276 71.2533L260.354 71.7867L270.155 61.12L267.462 58.6667L264.877 61.3333C263.226 60.5511 261.431 59.8756 259.492 59.3067C257.625 58.7378 255.578 58.2756 253.352 57.92V49.92C254.142 49.3511 254.86 48.8889 255.507 48.5333C259.887 45.9733 263.334 43.9822 265.847 42.56C268.432 41.0667 270.155 40.1067 271.017 39.68L271.125 39.1467ZM256.799 37.12C257.302 38.1867 257.733 39.0756 258.092 39.7867C258.523 40.4267 258.882 40.96 259.169 41.3867L253.352 45.12V31.4667L254.214 31.2533C254.573 32.2489 254.968 33.2445 255.399 34.24C255.83 35.2356 256.297 36.1956 256.799 37.12Z" fill="black"/>
<path d="M313.658 23.4667L310.75 23.68C309.458 25.7422 307.77 26.7733 305.688 26.7733C303.677 26.7733 301.523 25.4578 299.225 22.8267C296.64 25.3867 295.204 26.7378 294.917 26.88C291.829 28.5156 288.634 29.3333 285.331 29.3333C284.684 29.3333 284.325 29.2978 284.253 29.2267C282.243 29.2267 280.986 29.0844 280.484 28.8C279.694 28.8 278.94 28.48 278.222 27.84C278.222 28.1956 278.222 28.5156 278.222 28.8C278.222 29.0844 278.294 29.2978 278.437 29.44V29.5467L278.76 30.2933C278.76 30.5778 278.796 30.7556 278.868 30.8267V30.72C278.868 30.7911 278.868 30.8622 278.868 30.9333C278.94 30.9333 278.976 30.9689 278.976 31.04L279.083 49.6L278.976 49.8133C278.976 50.7378 278.653 51.6267 278.006 52.48L278.114 52.16L277.36 52.9067L284.469 53.2267C284.038 53.6533 283.643 54.0444 283.284 54.4C282.997 54.7556 282.746 55.04 282.53 55.2533L282.099 55.68C279.658 58.6667 277.719 61.4756 276.283 64.1067C274.847 66.6667 273.841 69.1911 273.267 71.68H276.391C277.683 68.5511 279.981 66.9867 283.284 66.9867C284.074 66.9867 284.684 67.0933 285.115 67.3067C285.761 67.3067 286.336 67.4133 286.838 67.6267C287.341 67.9111 287.88 68.3022 288.454 68.8L291.578 71.8933C295.096 68.1956 299.584 66.3467 305.042 66.3467H305.688C305.903 66.4178 306.549 66.4534 307.627 66.4534C307.986 66.6667 308.452 66.8089 309.027 66.88C309.601 66.88 310.319 66.88 311.181 66.88C311.325 66.88 311.432 66.9156 311.504 66.9867H311.396C311.54 67.0578 312.007 67.0933 312.797 67.0933L312.366 66.24C312.15 65.8844 311.935 65.5289 311.719 65.1733C311.504 64.8178 311.468 64.7111 311.612 64.8533L311.719 65.0667C311.648 64.7111 311.612 64.5333 311.612 64.5333C311.612 64.4622 311.576 64.3911 311.504 64.32V64.4267L311.396 64.2133V63.8933C311.325 63.8222 311.289 63.7156 311.289 63.5733V45.44C311.289 45.5111 311.325 45.4045 311.396 45.12C311.468 44.7645 311.54 44.48 311.612 44.2667V44.3733C311.612 44.3022 311.612 44.2311 311.612 44.16C311.684 44.0889 311.719 43.9822 311.719 43.84L311.827 43.6267V43.4133L312.043 43.2V42.9867L312.15 42.88C312.15 42.6667 312.186 42.4889 312.258 42.3467C312.258 42.2756 312.258 42.1333 312.258 41.92C312.33 41.7067 312.366 41.5645 312.366 41.4933L302.241 41.7067C308.273 35.5911 312.222 29.6889 314.089 24L313.658 23.4667ZM300.087 62.8267H299.656C299.297 62.9689 299.01 63.0756 298.794 63.1467C298.651 63.1467 298.579 63.1467 298.579 63.1467L298.148 63.36C295.491 60.0889 292.296 58.4533 288.562 58.4533C288.203 58.4533 287.7 58.5245 287.054 58.6667C286.408 58.7378 285.654 58.8444 284.792 58.9867C285.725 58.0622 286.515 57.2445 287.162 56.5333C287.808 55.7511 288.382 55.1111 288.885 54.6133L294.486 49.0667H299.979L300.195 49.28V62.72L300.087 62.8267ZM298.363 40.1067C296.712 41.7422 295.348 43.0578 294.27 44.0533C293.265 45.0489 292.475 45.7245 291.901 46.08H290.716V32.64C291.075 32.64 291.47 32.5333 291.901 32.32H292.332C292.404 32.2489 292.547 32.1778 292.763 32.1067C295.419 34.1689 297.789 35.2 299.871 35.2C301.236 35.2 302.528 34.9511 303.749 34.4533C302.6 35.6622 300.805 37.5467 298.363 40.1067Z" fill="black"/>
<path d="M343 62.72L340.738 60.16L339.661 61.3333C339.23 61.0489 338.835 60.8 338.476 60.5867C338.117 60.3022 337.83 60.0889 337.615 59.9467H337.722C337.65 59.8756 337.543 59.84 337.399 59.84C337.327 59.7689 337.255 59.6978 337.184 59.6267C336.968 59.6267 336.753 59.52 336.537 59.3067C336.466 59.2356 336.322 59.1645 336.107 59.0933C335.891 59.0222 335.783 58.9867 335.783 58.9867C335.065 58.9867 334.455 58.7378 333.952 58.24V32.7467C335.317 32.8178 336.502 32.96 337.507 33.1733C338.584 33.3156 339.517 33.5289 340.307 33.8133H340.415L340.523 33.92L341.815 34.56C341.384 32 341.169 29.9378 341.169 28.3733H341.061C341.061 26.9511 341.169 26.0267 341.384 25.6C341.384 25.3156 341.42 25.1022 341.492 24.96C341.492 24.8889 341.492 24.7111 341.492 24.4267C341.564 24.0711 341.6 23.8578 341.6 23.7867C340.164 24.7822 338.835 25.28 337.615 25.28L337.399 25.1733H333.952V16.32C333.952 15.7511 334.096 14.8622 334.383 13.6533C334.455 13.5111 334.491 13.3333 334.491 13.12C334.491 12.9067 334.491 12.8711 334.491 13.0133C334.635 12.5867 334.706 12.2311 334.706 11.9467C334.778 11.6622 334.85 11.4489 334.922 11.3067L335.029 11.2V9.70668C331.296 14.2578 327.346 16.5333 323.181 16.5333V16.4267H322.643L322.535 16.2133L321.781 16.4267C321.781 16.9244 321.853 17.2444 321.997 17.3867V17.4933C322.068 17.6356 322.104 17.8133 322.104 18.0267C322.176 18.1689 322.248 18.3111 322.32 18.4533C322.391 18.5956 322.427 18.7378 322.427 18.88C322.499 18.9511 322.535 18.9867 322.535 18.9867V20.0533L322.643 20.2667V25.1733H321.781C320.919 25.1733 320.417 25.2089 320.273 25.28C319.914 25.2089 319.412 25.0667 318.765 24.8533C318.119 24.64 317.329 24.2845 316.396 23.7867C316.396 25.6356 316.539 26.9511 316.826 27.7333V28.8L316.934 29.12V29.76C316.862 30.0445 316.791 30.2933 316.719 30.5067C316.719 30.72 316.719 30.9333 316.719 31.1467V32C316.647 32.1422 316.611 32.3556 316.611 32.64L316.503 32.8533V33.1733C316.432 33.3156 316.396 33.5289 316.396 33.8133C316.396 34.0267 316.396 34.2756 316.396 34.56L317.58 33.92H317.796L318.011 33.7067C318.586 33.5644 318.909 33.4578 318.981 33.3867C319.627 33.2444 320.201 33.0311 320.704 32.7467H322.643V59.52C320.848 60.4445 319.447 62.0444 318.442 64.32C317.796 65.7422 317.473 66.5956 317.473 66.88V68.3733C318.334 67.0933 319.627 66.4534 321.35 66.4534C324.941 66.4534 328.675 68.2667 332.552 71.8933L343 62.72Z" fill="black"/>
</svg>
