<svg width="1296" height="244" viewBox="0 0 1296 244" fill="none" xmlns="http://www.w3.org/2000/svg">
<path d="M277.2 206.76L250.56 243.12H249.12C223.2 243.12 210.24 225.24 210.24 189.48V138.36H189.72V203.88L194.04 199.92L202.68 209.64L159.12 243.12C148.32 230.88 137.4 224.76 126.36 224.76C123.48 224.76 120.24 225.24 116.64 226.2C113.28 226.92 109.44 228 105.12 229.44C105.12 228.72 105.24 227.76 105.48 226.56C105.96 225.36 106.56 224.16 107.28 222.96H106.92C112.44 212.88 119.04 205.2 126.72 199.92V138.36H106.56V201.36C106.56 205.2 104.88 210.48 101.52 217.2C92.88 233.76 80.76 242.04 65.16 242.04C62.76 242.04 58.44 241.08 52.2 239.16C47.16 237.48 43.08 236.64 39.96 236.64V235.92C30.36 232.8 24.24 231.24 21.6 231.24C12.72 231.24 5.52 235.08 0 242.76C0 229.08 3.48 218.04 10.44 209.64C17.64 201 27.48 196.68 39.96 196.68C43.32 196.68 47.04 197.16 51.12 198.12C55.44 199.08 60.12 200.52 65.16 202.44C66.36 202.92 66.96 203.28 66.96 203.52C67.2 203.52 67.92 203.76 69.12 204.24C71.28 205.68 73.8 206.4 76.68 206.4V203.52C78.6 205.44 79.8 206.4 80.28 206.4C82.68 206.4 85.32 205.2 88.2 202.8C91.32 200.16 92.88 197.52 92.88 194.88V42.9601L85.32 47.2801L84.96 47.6401L83.88 48.3601V48.7201C83.16 49.4401 82.8 50.1601 82.8 50.8801C82.08 51.6001 81.72 52.5601 81.72 53.7601V158.16C81.72 159.84 81.48 161.64 81 163.56C80.52 165.48 79.68 167.64 78.48 170.04C76.56 173.4 74.04 176.52 70.92 179.4C67.8 182.28 64.32 184.8 60.48 186.96C56.88 189.12 52.92 190.92 48.6 192.36C44.52 193.56 40.56 194.16 36.72 194.16H34.56V193.8H31.32L34.92 190.2H35.28C39.12 186.36 41.04 182.76 41.04 179.4V139.8L40.32 139.08C40.56 139.08 39.72 138.6 37.8 137.64H37.44L36.72 137.28H35.64L35.28 136.92C30.96 137.4 28.8 139.56 28.8 143.4C29.04 143.88 29.16 144.6 29.16 145.56L29.88 146.28L30.6 149.88H28.8L28.44 150.24H27.36C21.36 150.24 16.32 147.48 12.24 141.96C9.12 137.4 7.56 132 7.56 125.76C7.56 116.64 11.76 109.56 20.16 104.52C23.76 102.36 26.16 101.28 27.36 101.28L41.04 100.56V65.6401C41.04 57.7201 46.32 50.8801 56.88 45.1201L143.28 1.20008C153.84 18.9601 165 28.2001 176.76 28.9201V3.0001H189.72V28.2001H190.44C199.08 28.2001 211.44 19.0801 227.52 0.840088C236.88 11.4001 245.76 18.8401 254.16 23.1601H255.24C256.92 23.1601 258.48 22.8001 259.92 22.0801H261L261.36 21.7201C262.32 21.7201 263.88 21.0001 266.04 19.5601V25.6801L265.68 26.4001V28.2001L265.32 28.5601C265.08 31.9201 263.52 35.5201 260.64 39.3601C257.76 42.9601 254.64 45.4801 251.28 46.9201V190.2C251.28 193.56 252.48 196.68 254.88 199.56C257.28 202.2 260.16 203.88 263.52 204.6L267.12 199.56L277.2 206.76ZM174.96 197.4C175.2 197.4 175.32 197.52 175.32 197.76C175.56 197.76 175.92 197.76 176.4 197.76V47.6401C173.52 48.8401 170.76 49.4401 168.12 49.4401C167.64 49.6801 166.92 49.8001 165.96 49.8001H165.6V194.52C166.8 194.76 168 195.12 169.2 195.6C170.4 195.84 171.6 196.2 172.8 196.68C173.04 196.92 173.64 197.04 174.6 197.04L174.96 197.4ZM112.32 37.2001C111.84 36.9601 111.36 36.7201 110.88 36.4801C110.64 36.0001 110.28 35.5201 109.8 35.0401L106.56 35.7601V100.2H126.72V45.1201C126.24 44.6401 125.88 44.4001 125.64 44.4001C125.4 44.4001 125.16 44.2801 124.92 44.0401C123.96 43.8001 123.12 43.5601 122.4 43.3201C121.92 43.0801 121.44 42.8401 120.96 42.6001H121.32C120.12 42.6001 117.36 40.8001 113.04 37.2001V37.5601L112.32 37.2001ZM190.08 41.5201L189.72 41.8801V100.2H210.24V47.6401C203.52 46.4401 198.12 43.4401 194.04 38.6401C192.6 40.5601 191.28 41.5201 190.08 41.5201Z" fill="black"/>
<path d="M420.486 210.36L397.806 242.04H397.446L397.086 242.4H395.646L395.286 242.76H394.206L393.846 243.12H390.966C385.206 243.12 379.206 240.48 372.966 235.2C370.566 232.8 368.406 230.52 366.486 228.36C364.566 226.44 363.006 224.28 361.806 221.88L337.326 242.76H335.166C324.846 242.76 314.766 239.76 304.926 233.76C300.126 230.4 296.166 226.8 293.046 222.96C290.166 219.12 288.126 214.8 286.926 210C285.966 206.88 285.486 202.44 285.486 196.68C285.486 177.72 296.406 160.8 318.246 145.92C317.766 145.2 316.686 144 315.006 142.32C313.566 140.4 311.286 137.76 308.166 134.4C306.246 132.24 304.086 129.84 301.686 127.2C299.526 124.32 297.006 121.2 294.126 117.84H294.486C292.086 116.4 288.366 112.92 283.326 107.4C300.606 101.16 314.406 91.8001 324.726 79.3201L326.526 81.4801L326.886 82.2001C328.086 83.4001 329.766 85.5601 331.926 88.6801C334.086 91.5601 335.766 93.9601 336.966 95.8801V95.5201C341.046 100.8 345.246 103.44 349.566 103.44H348.846L350.646 102.72C351.126 103.2 351.606 103.44 352.086 103.44C356.886 103.44 364.206 96.9601 374.046 84.0001L374.406 83.2801C374.886 82.5601 375.246 81.9601 375.486 81.4801C375.966 81.0001 377.166 79.8001 379.086 77.8801C379.086 80.0401 379.206 81.2401 379.446 81.4801C379.206 81.4801 379.326 81.9601 379.806 82.9201C380.526 83.6401 381.366 84.4801 382.326 85.4401V85.0801C388.566 92.7601 394.566 96.6001 400.326 96.6001C402.966 96.6001 407.526 95.5201 414.006 93.3601V96.2401C414.006 106.56 408.846 114.72 398.526 120.72V195.24C398.526 199.8 400.206 203.52 403.566 206.4C406.926 209.04 411.126 210.48 416.166 210.72L416.526 210.36H420.486ZM351.726 211.8C355.566 211.8 358.446 211.08 360.366 209.64H360.726L361.086 209.28V123.6C357.726 123.6 354.126 121.08 350.286 116.04C345.006 122.76 338.406 126.12 330.486 126.12L329.766 126.48H322.206C321.726 126.48 321.006 126.48 320.046 126.48C319.326 126.48 318.606 126.36 317.886 126.12L358.206 171.84L349.206 179.76L326.886 155.64C324.486 160.2 322.806 164.28 321.846 167.88C320.886 171.24 320.406 174.24 320.406 176.88C320.406 186.24 323.406 194.28 329.406 201C335.886 208.2 343.326 211.8 351.726 211.8Z" fill="black"/>
<path d="M581.22 206.4L550.26 243.84C546.9 243.6 543.54 242.76 540.18 241.32C536.82 239.88 533.58 237.96 530.46 235.56C524.7 231 521.82 225.36 521.82 218.64V124.32C520.86 124.32 520.14 124.2 519.66 123.96H518.94L518.58 123.6L517.14 122.88H517.5C513.66 121.92 510.54 120.6 508.14 118.92C505.74 117.24 503.58 115.08 501.66 112.44L486.9 124.32V199.92C489.78 201.12 492.42 202.32 494.82 203.52C497.22 204.72 499.14 205.92 500.58 207.12C503.22 208.8 505.5 210.72 507.42 212.88C509.58 214.8 511.5 216.84 513.18 219L479.7 243.12C466.74 230.88 453.54 224.76 440.1 224.76H439.02L438.66 225.12H436.86L436.5 225.48H435.06L434.7 225.84H431.1C433.02 216.48 438.66 209.04 448.02 203.52V122.52C443.7 115.32 437.7 111.72 430.02 111.72L429.3 111.36H427.5V108.84L464.22 72.1201C468.06 75.4801 471.3 78.6001 473.94 81.4801C476.82 84.1201 479.1 86.7601 480.78 89.4001C484.62 95.4001 486.66 101.76 486.9 108.48L529.38 72.8401C539.46 86.7601 547.26 93.7201 552.78 93.7201C555.42 93.7201 561.54 91.6801 571.14 87.6001V92.6401L570.78 93.3601V96.9601L570.42 97.6801C570.42 103.44 567.18 109.56 560.7 116.04V199.92C560.7 204.72 564.3 207.12 571.5 207.12H572.94L573.3 206.76H576.18L576.54 206.4H581.22Z" fill="black"/>
<path d="M669.541 212.88L638.581 242.76C634.741 242.52 630.901 241.68 627.061 240.24C623.221 239.04 619.621 237 616.261 234.12C609.061 228.36 605.461 221.76 605.461 214.32V123.6C601.861 123.36 599.101 121.2 597.181 117.12L592.141 120L587.101 112.8L588.181 111L588.541 111.36L589.261 110.64L589.981 110.28C592.381 108.12 595.021 105.72 597.901 103.08C600.781 100.2 604.621 96.7201 609.421 92.6401C612.061 90.9601 615.301 88.3201 619.141 84.7201C619.141 84.7201 619.501 84.3601 620.221 83.6401C621.181 82.9201 622.021 82.2001 622.741 81.4801V77.1601C632.581 91.0801 641.221 98.0401 648.661 98.0401C650.341 98.0401 654.181 96.3601 660.181 93.0001V97.3201C659.701 98.7601 659.461 100.44 659.461 102.36C657.541 107.88 655.021 112.44 651.901 116.04C648.781 119.4 645.541 121.8 642.181 123.24V199.92C642.181 201.36 642.781 203.28 643.981 205.68C646.141 210.24 651.061 212.52 658.741 212.52C661.381 212.52 664.501 211.8 668.101 210.36L669.541 212.88ZM655.861 48.7201C655.861 52.0801 655.021 55.3201 653.341 58.4401C651.901 61.3201 649.861 63.9601 647.221 66.3601C644.821 68.5201 641.941 70.3201 638.581 71.7601C635.461 73.2001 632.221 73.9201 628.861 73.9201H625.981V73.5601H622.381L621.661 73.2001C612.541 73.2001 606.901 69.4801 604.741 62.0401L598.981 64.9201L594.301 57.0001C596.221 55.0801 598.261 53.6401 600.421 52.6801C602.581 51.4801 604.621 50.4001 606.541 49.4401L605.821 50.1601C606.541 49.6801 607.501 48.9601 608.701 48.0001C610.141 46.8001 611.461 45.7201 612.661 44.7601C614.341 43.5601 616.261 42.1201 618.421 40.4401C620.821 38.7601 623.341 36.9601 625.981 35.0401C632.221 44.1601 638.701 48.7201 645.421 48.7201C646.621 48.2401 647.581 48.0001 648.301 48.0001C649.261 47.7601 650.341 47.4001 651.541 46.9201H651.181L651.901 46.2001H652.261L652.621 45.8401H652.981L653.341 45.4801H655.861V48.7201Z" fill="black"/>
<path d="M790.518 25.3201L791.958 27.1201C790.278 33.1201 786.558 38.2801 780.798 42.6001C775.038 46.6801 769.158 48.8401 763.158 49.0801C762.678 49.3201 761.358 49.4401 759.198 49.4401C749.118 49.4401 741.558 46.8001 736.518 41.5201L736.158 42.2401L735.438 42.6001C734.718 43.3201 733.518 43.8001 731.838 44.0401H732.198L731.838 44.4001V85.0801L732.198 85.4401C747.318 85.4401 755.718 84.9601 757.398 84.0001C758.118 84.0001 759.198 84.0001 760.638 84.0001C762.318 83.7601 764.118 83.4001 766.038 82.9201V86.1601L765.678 86.5201V87.6001L765.318 88.3201V90.1201C764.598 94.9201 764.238 99.7201 764.238 104.52V106.32L764.598 107.04V110.64L766.758 113.16H762.078L761.718 112.8C759.798 112.8 755.238 112.08 748.038 110.64C747.558 110.64 747.078 110.64 746.598 110.64C746.118 110.64 745.638 110.52 745.158 110.28H745.518C745.278 110.28 745.158 110.28 745.158 110.28C745.158 110.04 745.038 109.92 744.798 109.92C742.158 109.92 739.758 109.92 737.598 109.92C735.678 109.92 733.758 109.68 731.838 109.2V198.48C733.278 199.2 735.198 199.56 737.598 199.56C739.518 200.76 741.438 201.36 743.358 201.36C743.838 201.84 744.918 202.56 746.598 203.52C748.278 204.48 750.318 205.8 752.718 207.48L760.638 199.2L768.198 206.4L729.678 243.48C713.358 229.32 698.478 222.24 685.038 222.24H684.318L683.598 222.6C682.398 222.6 681.078 222.72 679.638 222.96C678.438 223.2 677.118 223.56 675.678 224.04C678.558 212.76 684.798 204.96 694.398 200.64V108.48C692.238 109.2 687.918 109.56 681.438 109.56L680.718 109.92H678.198C678.198 106.08 678.318 103.56 678.558 102.36V93.0001L678.198 91.9201V89.7601L677.838 89.0401V82.5601C679.518 83.2801 682.038 83.6401 685.398 83.6401C685.638 83.8801 687.318 84.0001 690.438 84.0001C690.678 84.2401 691.878 84.3601 694.038 84.3601H694.398L694.038 48.3601V48.7201C693.798 48.2401 693.558 47.5201 693.318 46.5601C693.078 45.6001 692.718 44.5201 692.238 43.3201L691.878 42.6001V39.0001C693.078 39.4801 694.278 39.7201 695.478 39.7201C696.678 39.7201 697.878 39.7201 699.078 39.7201C718.998 39.7201 738.318 28.4401 757.038 5.88009C757.518 6.3601 758.238 7.2001 759.198 8.4001C760.398 9.3601 761.958 11.0401 763.878 13.4401C771.558 21.6001 779.478 25.6801 787.638 25.6801H786.918L787.638 25.3201H790.518Z" fill="black"/>
<path d="M906.182 132.96L905.822 134.76C902.942 136.2 897.182 139.44 888.542 144.48C880.142 149.28 868.622 156 853.982 164.64C851.822 165.84 849.422 167.4 846.782 169.32V196.32C854.222 197.52 861.062 199.08 867.302 201C873.782 202.92 879.782 205.2 885.302 207.84L893.942 198.84L902.942 207.12L870.182 243.12L866.582 241.32C861.542 238.68 856.622 236.16 851.822 233.76C847.022 231.6 841.502 229.92 835.262 228.72C824.702 226.56 815.582 225.48 807.902 225.48C805.022 225.48 802.142 225.72 799.262 226.2C796.382 226.44 793.502 226.8 790.622 227.28C791.102 226.08 791.582 225.12 792.062 224.4C792.542 223.44 793.022 222.72 793.502 222.24V222.6C795.182 219.96 796.502 217.8 797.462 216.12C798.662 214.44 799.382 213.48 799.622 213.24C801.302 211.08 804.542 208.2 809.342 204.6V117.48C809.342 113.88 807.422 107.88 803.582 99.4801V94.4401L806.822 97.6801H808.982L809.342 98.0401H810.422L811.502 98.4001H812.942C831.902 98.4001 853.262 90.4801 877.022 74.6401C878.222 78.9601 879.782 83.6401 881.702 88.6801C883.622 93.7201 886.262 99.3601 889.622 105.6C892.742 111.12 895.622 116.28 898.262 121.08C901.142 125.64 903.782 129.6 906.182 132.96ZM858.302 126.12C856.622 123 855.062 119.76 853.622 116.4C852.182 113.04 850.862 109.68 849.662 106.32L846.782 107.04V153.12L866.222 140.52C865.262 139.08 864.062 137.28 862.622 135.12C861.422 132.72 859.982 129.72 858.302 126.12Z" fill="black"/>
<path d="M1048.34 80.0401L1049.78 81.8401C1043.54 101.04 1030.34 120.96 1010.18 141.6L1044.02 140.88C1044.02 141.12 1043.9 141.6 1043.66 142.32C1043.66 143.04 1043.66 143.52 1043.66 143.76C1043.42 144.24 1043.3 144.84 1043.3 145.56L1042.94 145.92V146.64L1042.22 147.36V148.08L1041.86 148.8C1041.86 149.28 1041.74 149.64 1041.5 149.88C1041.5 150.12 1041.5 150.36 1041.5 150.6V150.24C1041.26 150.96 1041.02 151.92 1040.78 153.12C1040.54 154.08 1040.42 154.44 1040.42 154.2V215.4C1040.42 215.88 1040.54 216.24 1040.78 216.48V217.56L1041.14 218.28V217.92C1041.38 218.16 1041.5 218.4 1041.5 218.64C1041.5 218.64 1041.62 219.24 1041.86 220.44L1041.5 219.72C1041.02 219.24 1041.14 219.6 1041.86 220.8C1042.58 222 1043.3 223.2 1044.02 224.4L1045.46 227.28C1042.82 227.28 1041.26 227.16 1040.78 226.92H1041.14C1040.9 226.68 1040.54 226.56 1040.06 226.56C1037.18 226.56 1034.78 226.56 1032.86 226.56C1030.94 226.32 1029.38 225.84 1028.18 225.12C1024.58 225.12 1022.42 225 1021.7 224.76H1019.54C1001.3 224.76 986.302 231 974.542 243.48L964.102 233.04C962.182 231.36 960.382 230.04 958.702 229.08C957.022 228.36 955.102 228 952.943 228C951.503 227.28 949.462 226.92 946.822 226.92C935.782 226.92 928.102 232.2 923.782 242.76H913.342C915.262 234.36 918.622 225.84 923.422 217.2C928.222 208.32 934.703 198.84 942.862 188.76L944.302 187.32C945.022 186.6 945.862 185.64 946.822 184.44C948.022 183.24 949.342 181.92 950.782 180.48L927.022 179.4L929.542 176.88L929.182 177.96C931.342 175.08 932.422 172.08 932.422 168.96L932.782 168.24L932.422 105.6C932.422 105.36 932.302 105.24 932.062 105.24C932.062 105 932.062 104.76 932.062 104.52V104.88C931.823 104.64 931.702 104.04 931.702 103.08L930.622 100.56V100.2C930.143 99.7201 929.902 99.0001 929.902 98.0401C929.902 97.0801 929.902 96.0001 929.902 94.8001C932.302 96.9601 934.822 98.0401 937.462 98.0401C939.142 99.0001 943.343 99.4801 950.062 99.4801C950.302 99.7201 951.503 99.8401 953.662 99.8401C964.702 99.8401 975.382 97.0801 985.702 91.5601C986.662 91.0801 991.462 86.5201 1000.1 77.8801C1007.78 86.7601 1014.98 91.2001 1021.7 91.2001C1028.66 91.2001 1034.3 87.7201 1038.62 80.7601L1048.34 80.0401ZM1002.98 212.88L1003.34 212.52V167.16L1002.62 166.44H984.262L965.542 185.16C963.862 186.84 961.942 189 959.782 191.64C957.622 194.04 954.982 196.8 951.862 199.92C954.742 199.44 957.263 199.08 959.422 198.84C961.582 198.36 963.262 198.12 964.462 198.12C976.942 198.12 987.622 203.64 996.503 214.68L997.943 213.96C997.943 213.96 998.182 213.96 998.662 213.96C999.383 213.72 1000.34 213.36 1001.54 212.88H1002.98ZM997.222 136.2C1005.38 127.56 1011.38 121.2 1015.22 117.12C1011.14 118.8 1006.82 119.64 1002.26 119.64C995.302 119.64 987.383 116.16 978.503 109.2C977.783 109.44 977.302 109.68 977.062 109.92H975.622C974.182 110.64 972.862 111 971.662 111V156.36H975.622C977.542 155.16 980.182 152.88 983.542 149.52C987.142 146.16 991.702 141.72 997.222 136.2Z" fill="black"/>
<path d="M1146.41 212.52L1111.49 243.48C1098.53 231.24 1086.05 225.12 1074.05 225.12C1068.29 225.12 1063.97 227.28 1061.09 231.6V226.56C1061.09 225.6 1062.17 222.72 1064.33 217.92C1067.69 210.24 1072.37 204.84 1078.37 201.72V111.36H1071.89C1070.21 112.32 1068.29 113.04 1066.13 113.52C1065.89 113.76 1064.81 114.12 1062.89 114.6L1062.17 115.32H1061.45L1057.49 117.48C1057.49 116.52 1057.49 115.68 1057.49 114.96C1057.49 114 1057.61 113.28 1057.85 112.8V111.72L1058.21 111C1058.21 110.04 1058.33 109.32 1058.57 108.84V105.96C1058.57 105.24 1058.57 104.52 1058.57 103.8C1058.81 103.08 1059.05 102.24 1059.29 101.28V99.1201L1058.93 98.0401V94.4401C1057.97 91.8001 1057.49 87.3601 1057.49 81.1201C1060.61 82.8001 1063.25 84.0001 1065.41 84.7201C1067.57 85.4401 1069.25 85.9201 1070.45 86.1601C1070.93 85.9201 1072.61 85.8001 1075.49 85.8001H1078.37V69.2401L1078.01 68.5201V64.9201C1078.01 64.9201 1077.89 64.8001 1077.65 64.5601C1077.65 64.0801 1077.53 63.6001 1077.29 63.1201C1077.05 62.6401 1076.81 62.1601 1076.57 61.6801C1076.57 60.9601 1076.45 60.3601 1076.21 59.8801V59.5201C1075.73 59.0401 1075.49 57.9601 1075.49 56.2801L1078.01 55.5601L1078.37 56.2801H1080.17V56.6401C1094.09 56.6401 1107.29 48.9601 1119.77 33.6001V38.6401L1119.41 39.0001C1119.17 39.4801 1118.93 40.2001 1118.69 41.1601C1118.69 42.1201 1118.45 43.3201 1117.97 44.7601C1117.97 44.2801 1117.97 44.4001 1117.97 45.1201C1117.97 45.8401 1117.85 46.4401 1117.61 46.9201C1116.65 51.0001 1116.17 54.0001 1116.17 55.9201V85.8001H1127.69L1128.41 86.1601C1132.49 86.1601 1136.93 84.4801 1141.73 81.1201C1141.73 81.3601 1141.61 82.0801 1141.37 83.2801C1141.37 84.2401 1141.37 84.8401 1141.37 85.0801C1141.13 85.5601 1141.01 86.2801 1141.01 87.2401C1140.29 88.6801 1139.93 91.8001 1139.93 96.6001H1140.29C1140.29 101.88 1141.01 108.84 1142.45 117.48L1138.13 115.32L1137.77 114.96H1137.41C1134.77 114 1131.65 113.28 1128.05 112.8C1124.69 112.08 1120.73 111.6 1116.17 111.36V197.4C1117.85 199.08 1119.89 199.92 1122.29 199.92C1122.29 199.92 1122.65 200.04 1123.37 200.28C1124.09 200.52 1124.57 200.76 1124.81 201C1125.53 201.72 1126.25 202.08 1126.97 202.08C1127.21 202.32 1127.45 202.56 1127.69 202.8C1128.17 202.8 1128.53 202.92 1128.77 203.16H1128.41C1129.13 203.64 1130.09 204.36 1131.29 205.32C1132.49 206.04 1133.81 206.88 1135.25 207.84L1138.85 203.88L1146.41 212.52Z" fill="black"/>
<path d="M1295.68 95.8801L1295.32 96.6001V98.4001L1294.96 99.1201C1294.96 100.56 1294.48 102.12 1293.53 103.8C1292.57 105.24 1291.36 107.16 1289.92 109.56C1288.24 111.48 1286.68 113.16 1285.24 114.6C1284.05 116.04 1282.84 117 1281.65 117.48V200.28C1281.65 208.44 1284.89 215.52 1291.36 221.52C1282.24 219.6 1274.93 218.64 1269.41 218.64C1241.81 218.64 1219.36 226.92 1202.08 243.48C1189.12 230.04 1177.48 223.32 1167.16 223.32C1165.24 223.32 1162.84 223.68 1159.96 224.4L1152.77 225.48C1153.72 215.16 1159.48 207.48 1170.04 202.44L1169.68 108.48V108.84L1168.6 105.6C1168.36 105.6 1168.24 105.36 1168.24 104.88L1167.53 104.16V103.44L1167.16 103.08L1166.44 101.64C1165.96 101.16 1165.72 100.56 1165.72 99.8401C1165.72 99.6001 1165.6 99.4801 1165.36 99.4801C1165.36 99.4801 1165.36 99.2401 1165.36 98.7601V99.8401L1165.01 99.1201V95.1601C1167.89 96.1201 1171.01 96.8401 1174.36 97.3201C1177.72 97.8001 1181.45 98.0401 1185.53 98.0401C1210.97 98.0401 1233.89 89.6401 1254.29 72.8401C1262.21 84.6001 1269.41 91.6801 1275.89 94.0801C1279.48 95.2801 1282.24 95.8801 1284.17 95.8801C1285.36 95.8801 1286.8 95.6401 1288.48 95.1601C1290.17 94.4401 1292.56 93.1201 1295.68 91.2001V95.8801ZM1237.36 208.2C1238.81 208.2 1240.6 207.84 1242.77 207.12H1243.12V120C1234.96 119.76 1228.01 115.2 1222.24 106.32C1218.17 108.72 1213.6 109.92 1208.56 109.92V196.68C1210.48 197.88 1212.77 198.48 1215.41 198.48L1216.84 199.2H1216.48C1217.2 199.44 1217.93 199.68 1218.65 199.92C1219.6 200.16 1220.08 200.28 1220.08 200.28C1222.48 201.24 1226.8 204.6 1233.04 210.36L1237.36 208.2Z" fill="black"/>
</svg>
