<svg width="754" height="642" viewBox="0 0 754 642" fill="none" xmlns="http://www.w3.org/2000/svg">
<path d="M165.52 164.63L162.82 160.04C162.28 158.96 162.01 157.34 162.01 155.18V95.24C162.01 89.3 157.78 84.44 149.32 80.66C148.42 80.3 147.16 80.03 145.54 79.85C144.1 79.49 142.84 79.22 141.76 79.04C141.58 79.04 141.4 79.04 141.22 79.04C141.04 78.86 140.86 78.77 140.68 78.77H139.87C141.13 77.87 142.39 76.61 143.65 74.99C145.09 73.37 146.71 71.48 148.51 69.32C155.53 59.06 159.67 49.79 160.93 41.51C161.11 40.79 161.2 39.44 161.2 37.46V36.38C161.2 18.74 153.01 6.85999 136.63 0.739997L80.7398 39.08V39.35C78.9398 40.61 77.4998 42.32 76.4198 44.48C76.7798 43.22 76.5998 43.4 75.8798 45.02C75.3398 46.64 74.8898 47.99 74.5298 49.07V131.42L74.2598 131.96C74.2598 131.78 74.1698 132.14 73.9898 133.04C73.8098 133.94 73.6298 134.75 73.4498 135.47C73.0898 136.91 72.9098 137.9 72.9098 138.44C71.8298 139.7 71.1098 140.6 70.7498 141.14C70.3898 141.5 70.2098 141.68 70.2098 141.68L71.0198 143.84C77.4998 143.84 84.6998 140.87 92.6198 134.93C99.9998 128.45 103.69 122.15 103.69 116.03V35.57L119.08 25.04C130.06 30.44 135.55 40.34 135.55 54.74V55.55C135.37 56.45 135.28 57.26 135.28 57.98C135.28 58.52 135.19 59.06 135.01 59.6C134.83 60.14 134.65 60.59 134.47 60.95C134.47 61.31 134.47 61.67 134.47 62.03C131.77 72.29 127.27 78.41 120.97 80.39V72.83H110.98V147.62C105.76 145.28 99.1898 144.11 91.2698 144.11C78.6698 144.11 66.5198 147.71 54.8198 154.91C42.9398 161.75 34.2098 171.74 28.6298 184.88C41.4098 176.6 55.2698 172.46 70.2098 172.46H71.8298C72.3698 172.46 72.9998 172.46 73.7198 172.46C74.4398 172.46 75.2498 172.55 76.1498 172.73C77.0498 172.73 77.8598 172.82 78.5798 173C79.4798 173 80.1098 173 80.4698 173C86.2298 173 95.4998 176.87 108.28 184.61C116.38 177.23 125.92 171.74 136.9 168.14C139.24 167.78 141.22 167.42 142.84 167.06C144.64 166.7 146.08 166.34 147.16 165.98C147.7 165.8 148.15 165.71 148.51 165.71C148.87 165.53 149.05 165.44 149.05 165.44C151.03 165.44 152.2 165.35 152.56 165.17H156.61C157.15 165.35 157.78 165.53 158.5 165.71C159.4 165.71 160.57 165.71 162.01 165.71C162.19 165.71 162.28 165.8 162.28 165.98C162.46 165.98 162.64 165.98 162.82 165.98H162.55C163.09 166.16 163.72 166.25 164.44 166.25L165.52 164.63ZM73.1798 36.65C67.9598 37.55 63.2798 39.08 59.1398 41.24C55.1798 43.22 51.5798 45.74 48.3398 48.8C40.9598 55.64 37.2698 64.01 37.2698 73.91V75.26L37.5398 75.53V77.15C25.1198 78.77 18.9098 85.52 18.9098 97.4C18.9098 104.78 20.5298 109.82 23.7698 112.52V112.25C24.4898 112.79 25.3898 113.6 26.4698 114.68C27.7298 115.76 28.8998 116.84 29.9798 117.92C29.9798 111.98 32.1398 109.01 36.4598 109.01L36.9998 108.74H37.8098V153.56C37.0898 155.54 36.7298 157.25 36.7298 158.69V158.42L36.4598 158.96L36.7298 158.69C36.3698 159.05 36.1898 159.41 36.1898 159.77L34.5698 161.66H38.0798L38.6198 161.39H39.1598L39.4298 161.12C41.9498 161.12 45.3698 159.59 49.6898 156.53C62.2898 148.07 68.5898 138.44 68.5898 127.64V49.34C68.5898 44.48 70.3898 40.88 73.9898 38.54L73.1798 36.65C73.5398 36.65 74.2598 36.47 75.3398 36.11C78.7598 35.21 82.0898 34.04 85.3298 32.6C88.5698 31.16 91.6298 29.27 94.5098 26.93C101.71 21.89 105.49 16.04 105.85 9.38L104.23 8.56999C99.9098 11.81 95.3198 13.43 90.4598 13.43C87.9398 13.43 83.4398 12.35 76.9598 10.19C64.1798 5.86999 53.6498 3.70999 45.3698 3.70999C39.2498 3.70999 33.1298 5.32999 27.0098 8.56999C20.8898 11.99 16.6598 15.95 14.3198 20.45C11.9798 24.95 10.8098 28.64 10.8098 31.52V34.76C15.3098 30.26 19.7198 28.01 24.0398 28.01C26.5598 28.01 30.2498 28.73 35.1098 30.17C47.7098 34.49 58.0598 36.65 66.1598 36.65L66.4298 36.92H67.2398C68.3198 36.92 69.3098 36.92 70.2098 36.92C71.2898 36.92 72.2798 36.83 73.1798 36.65ZM122.05 153.02C121.69 152.84 121.33 152.57 120.97 152.21V136.55L121.51 136.28H122.05L122.59 135.74H123.4L123.94 135.47H125.29L125.56 135.2H126.64L127.18 135.47H127.72C128.08 135.65 128.98 135.74 130.42 135.74C130.42 135.74 130.51 135.83 130.69 136.01C131.05 136.01 131.32 136.1 131.5 136.28V159.23C128.98 157.43 126.91 156.08 125.29 155.18C123.85 154.28 122.77 153.56 122.05 153.02ZM130.42 102.8L130.15 103.07H129.88C129.52 103.25 129.25 103.34 129.07 103.34C128.53 103.34 128.17 103.43 127.99 103.61H124.75C123.49 103.61 122.5 103.34 121.78 102.8H121.51C121.15 102.44 120.97 102.44 120.97 102.8V90.11H123.94L124.21 90.92C129.07 90.92 131.5 92.45 131.5 95.51V102.53C131.32 102.71 130.96 102.8 130.42 102.8ZM128.53 125.21C128.17 125.21 127.9 125.21 127.72 125.21C127.54 125.03 127.36 124.94 127.18 124.94H123.94L123.4 125.21H123.13C122.41 125.39 121.69 125.66 120.97 126.02V112.79H121.78C122.5 113.33 123.49 113.6 124.75 113.6H129.07L129.34 113.33H130.69L131.23 112.79H131.5V126.02C130.6 125.84 129.61 125.57 128.53 125.21ZM24.0398 112.79H24.3098C24.1298 112.79 23.9498 112.79 23.7698 112.79C23.7698 112.61 23.7698 112.52 23.7698 112.52L24.0398 112.79ZM230.516 163.01L225.116 155.99L221.066 159.77L220.256 158.96C220.076 158.6 219.536 157.97 218.636 157.07C217.916 156.71 217.736 156.71 218.096 157.07C214.496 154.37 211.616 152.48 209.456 151.4V36.11C209.456 33.41 210.086 29.54 211.346 24.5C212.066 21.98 212.696 19.73 213.236 17.75C213.776 15.77 214.406 14.06 215.126 12.62L213.776 11.54C200.276 22.34 190.376 27.74 184.076 27.74C183.536 27.74 182.996 27.74 182.456 27.74C181.916 27.56 181.106 27.2 180.026 26.66V30.17L180.296 30.71C180.476 31.07 180.566 31.52 180.566 32.06L180.836 32.33L181.376 33.14C181.376 34.04 181.466 34.67 181.646 35.03V34.76C181.646 34.94 181.646 35.12 181.646 35.3C181.826 35.3 181.916 35.39 181.916 35.57L183.536 43.94V154.1C179.036 156.44 174.716 160.94 170.576 167.6C183.356 170.66 194.426 176.24 203.786 184.34L230.516 163.01ZM321.306 101.72C319.506 99.2 317.526 96.23 315.366 92.81C313.386 89.21 311.226 85.34 308.886 81.2C306.366 76.52 304.386 72.29 302.946 68.51C301.506 64.73 300.336 61.22 299.436 57.98C281.616 69.86 265.596 75.8 251.376 75.8H250.296L249.486 75.53H248.676L248.406 75.26H246.786L244.356 72.83V76.61C247.236 82.91 248.676 87.41 248.676 90.11V155.45C245.076 158.15 242.646 160.31 241.386 161.93C241.206 162.11 240.666 162.83 239.766 164.09C239.046 165.35 238.056 166.97 236.796 168.95V168.68C236.436 169.04 236.076 169.58 235.716 170.3C235.356 170.84 234.996 171.56 234.636 172.46C236.796 172.1 238.956 171.83 241.116 171.65C243.276 171.29 245.436 171.11 247.596 171.11C253.356 171.11 260.196 171.92 268.116 173.54C272.796 174.44 276.936 175.7 280.536 177.32C284.136 179.12 287.826 181.01 291.606 182.99L294.306 184.34L318.876 157.34L312.126 151.13L305.646 157.88C301.506 155.9 297.006 154.19 292.146 152.75C287.466 151.31 282.336 150.14 276.756 149.24V128.99C278.736 127.55 280.536 126.38 282.156 125.48C293.136 119 301.776 113.96 308.076 110.36C314.556 106.58 318.876 104.15 321.036 103.07L321.306 101.72ZM285.396 96.59C286.656 99.29 287.736 101.54 288.636 103.34C289.716 104.96 290.616 106.31 291.336 107.39L276.756 116.84V82.28L278.916 81.74C279.816 84.26 280.806 86.78 281.886 89.3C282.966 91.82 284.136 94.25 285.396 96.59ZM427.926 62.03L420.636 62.57C417.396 67.79 413.166 70.4 407.946 70.4C402.906 70.4 397.506 67.07 391.746 60.41C385.266 66.89 381.666 70.31 380.946 70.67C373.206 74.81 365.196 76.88 356.916 76.88C355.296 76.88 354.396 76.79 354.216 76.61C349.176 76.61 346.026 76.25 344.766 75.53C342.786 75.53 340.896 74.72 339.096 73.1C339.096 74 339.096 74.81 339.096 75.53C339.096 76.25 339.276 76.79 339.636 77.15V77.42L340.446 79.31C340.446 80.03 340.536 80.48 340.716 80.66V80.39C340.716 80.57 340.716 80.75 340.716 80.93C340.896 80.93 340.986 81.02 340.986 81.2L341.256 128.18L340.986 128.72C340.986 131.06 340.176 133.31 338.556 135.47L338.826 134.66L336.936 136.55L354.756 137.36C353.676 138.44 352.686 139.43 351.786 140.33C351.066 141.23 350.436 141.95 349.896 142.49L348.816 143.57C342.696 151.13 337.836 158.24 334.236 164.9C330.636 171.38 328.116 177.77 326.676 184.07H334.506C337.746 176.15 343.506 172.19 351.786 172.19C353.766 172.19 355.296 172.46 356.376 173C357.996 173 359.436 173.27 360.696 173.81C361.956 174.53 363.306 175.52 364.746 176.78L372.576 184.61C381.396 175.25 392.646 170.57 406.326 170.57H407.946C408.486 170.75 410.106 170.84 412.806 170.84C413.706 171.38 414.876 171.74 416.316 171.92C417.756 171.92 419.556 171.92 421.716 171.92C422.076 171.92 422.346 172.01 422.526 172.19H422.256C422.616 172.37 423.786 172.46 425.766 172.46L424.686 170.3C424.146 169.4 423.606 168.5 423.066 167.6C422.526 166.7 422.436 166.43 422.796 166.79L423.066 167.33C422.886 166.43 422.796 165.98 422.796 165.98C422.796 165.8 422.706 165.62 422.526 165.44V165.71L422.256 165.17V164.36C422.076 164.18 421.986 163.91 421.986 163.55V117.65C421.986 117.83 422.076 117.56 422.256 116.84C422.436 115.94 422.616 115.22 422.796 114.68V114.95C422.796 114.77 422.796 114.59 422.796 114.41C422.976 114.23 423.066 113.96 423.066 113.6L423.336 113.06V112.52L423.876 111.98V111.44L424.146 111.17C424.146 110.63 424.236 110.18 424.416 109.82C424.416 109.64 424.416 109.28 424.416 108.74C424.596 108.2 424.686 107.84 424.686 107.66L399.306 108.2C414.426 92.72 424.326 77.78 429.006 63.38L427.926 62.03ZM393.906 161.66H392.826C391.926 162.02 391.206 162.29 390.666 162.47C390.306 162.47 390.126 162.47 390.126 162.47L389.046 163.01C382.386 154.73 374.376 150.59 365.016 150.59C364.116 150.59 362.856 150.77 361.236 151.13C359.616 151.31 357.726 151.58 355.566 151.94C357.906 149.6 359.886 147.53 361.506 145.73C363.126 143.75 364.566 142.13 365.826 140.87L379.866 126.83H393.636L394.176 127.37V161.39L393.906 161.66ZM389.586 104.15C385.446 108.29 382.026 111.62 379.326 114.14C376.806 116.66 374.826 118.37 373.386 119.27H370.416V85.25C371.316 85.25 372.306 84.98 373.386 84.44H374.466C374.646 84.26 375.006 84.08 375.546 83.9C382.206 89.12 388.146 91.73 393.366 91.73C396.786 91.73 400.026 91.1 403.086 89.84C400.206 92.9 395.706 97.67 389.586 104.15ZM535.768 62.03L528.478 62.57C525.238 67.79 521.008 70.4 515.788 70.4C510.748 70.4 505.348 67.07 499.588 60.41C493.108 66.89 489.508 70.31 488.788 70.67C481.048 74.81 473.038 76.88 464.758 76.88C463.138 76.88 462.238 76.79 462.058 76.61C457.018 76.61 453.868 76.25 452.608 75.53C450.628 75.53 448.738 74.72 446.938 73.1C446.938 74 446.938 74.81 446.938 75.53C446.938 76.25 447.118 76.79 447.478 77.15V77.42L448.288 79.31C448.288 80.03 448.378 80.48 448.558 80.66V80.39C448.558 80.57 448.558 80.75 448.558 80.93C448.738 80.93 448.828 81.02 448.828 81.2L449.098 128.18L448.828 128.72C448.828 131.06 448.018 133.31 446.398 135.47L446.668 134.66L444.778 136.55L462.598 137.36C461.518 138.44 460.528 139.43 459.628 140.33C458.908 141.23 458.278 141.95 457.738 142.49L456.658 143.57C450.538 151.13 445.678 158.24 442.078 164.9C438.478 171.38 435.958 177.77 434.518 184.07H442.348C445.588 176.15 451.348 172.19 459.628 172.19C461.608 172.19 463.138 172.46 464.218 173C465.838 173 467.278 173.27 468.538 173.81C469.798 174.53 471.148 175.52 472.588 176.78L480.418 184.61C489.238 175.25 500.488 170.57 514.168 170.57H515.788C516.328 170.75 517.948 170.84 520.648 170.84C521.548 171.38 522.718 171.74 524.158 171.92C525.598 171.92 527.398 171.92 529.558 171.92C529.918 171.92 530.188 172.01 530.368 172.19H530.098C530.458 172.37 531.628 172.46 533.608 172.46L532.528 170.3C531.988 169.4 531.448 168.5 530.908 167.6C530.368 166.7 530.278 166.43 530.638 166.79L530.908 167.33C530.728 166.43 530.638 165.98 530.638 165.98C530.638 165.8 530.548 165.62 530.368 165.44V165.71L530.098 165.17V164.36C529.918 164.18 529.828 163.91 529.828 163.55V117.65C529.828 117.83 529.918 117.56 530.098 116.84C530.278 115.94 530.458 115.22 530.638 114.68V114.95C530.638 114.77 530.638 114.59 530.638 114.41C530.818 114.23 530.908 113.96 530.908 113.6L531.178 113.06V112.52L531.718 111.98V111.44L531.988 111.17C531.988 110.63 532.078 110.18 532.258 109.82C532.258 109.64 532.258 109.28 532.258 108.74C532.438 108.2 532.528 107.84 532.528 107.66L507.148 108.2C522.268 92.72 532.168 77.78 536.848 63.38L535.768 62.03ZM501.748 161.66H500.668C499.768 162.02 499.048 162.29 498.508 162.47C498.148 162.47 497.968 162.47 497.968 162.47L496.888 163.01C490.228 154.73 482.218 150.59 472.858 150.59C471.958 150.59 470.698 150.77 469.078 151.13C467.458 151.31 465.568 151.58 463.408 151.94C465.748 149.6 467.728 147.53 469.348 145.73C470.968 143.75 472.408 142.13 473.668 140.87L487.708 126.83H501.478L502.018 127.37V161.39L501.748 161.66ZM497.428 104.15C493.288 108.29 489.868 111.62 487.168 114.14C484.648 116.66 482.668 118.37 481.228 119.27H478.258V85.25C479.158 85.25 480.148 84.98 481.228 84.44H482.308C482.488 84.26 482.848 84.08 483.388 83.9C490.048 89.12 495.988 91.73 501.208 91.73C504.628 91.73 507.868 91.1 510.928 89.84C508.048 92.9 503.548 97.67 497.428 104.15ZM628.22 101.72C626.42 99.2 624.44 96.23 622.28 92.81C620.3 89.21 618.14 85.34 615.8 81.2C613.28 76.52 611.3 72.29 609.86 68.51C608.42 64.73 607.25 61.22 606.35 57.98C588.53 69.86 572.51 75.8 558.29 75.8H557.21L556.4 75.53H555.59L555.32 75.26H553.7L551.27 72.83V76.61C554.15 82.91 555.59 87.41 555.59 90.11V155.45C551.99 158.15 549.56 160.31 548.3 161.93C548.12 162.11 547.58 162.83 546.68 164.09C545.96 165.35 544.97 166.97 543.71 168.95V168.68C543.35 169.04 542.99 169.58 542.63 170.3C542.27 170.84 541.91 171.56 541.55 172.46C543.71 172.1 545.87 171.83 548.03 171.65C550.19 171.29 552.35 171.11 554.51 171.11C560.27 171.11 567.11 171.92 575.03 173.54C579.71 174.44 583.85 175.7 587.45 177.32C591.05 179.12 594.74 181.01 598.52 182.99L601.22 184.34L625.79 157.34L619.04 151.13L612.56 157.88C608.42 155.9 603.92 154.19 599.06 152.75C594.38 151.31 589.25 150.14 583.67 149.24V128.99C585.65 127.55 587.45 126.38 589.07 125.48C600.05 119 608.69 113.96 614.99 110.36C621.47 106.58 625.79 104.15 627.95 103.07L628.22 101.72ZM592.31 96.59C593.57 99.29 594.65 101.54 595.55 103.34C596.63 104.96 597.53 106.31 598.25 107.39L583.67 116.84V82.28L585.83 81.74C586.73 84.26 587.72 86.78 588.8 89.3C589.88 91.82 591.05 94.25 592.31 96.59ZM737.27 72.02L735.11 74.72C732.23 74.72 729.35 73.37 726.47 70.67H726.74C726.38 70.31 725.93 69.95 725.39 69.59C725.03 69.23 724.67 68.87 724.31 68.51C723.05 67.43 721.97 66.44 721.07 65.54C720.17 64.64 719.36 63.83 718.64 63.11L712.43 56.63C712.43 56.81 712.25 56.54 711.89 55.82L683.81 28.01L677.06 21.26V21.53C673.64 16.85 671.3 12.62 670.04 8.83999C665.54 11.18 660.95 12.98 656.27 14.24C651.59 15.5 646.91 16.13 642.23 16.13C640.43 16.13 639.44 16.04 639.26 15.86C637.64 15.86 636.02 15.05 634.4 13.43V17.21C640.16 23.87 644.21 28.19 646.55 30.17C648.17 31.61 649.61 32.87 650.87 33.95C652.31 34.85 653.39 35.57 654.11 36.11C657.35 38.63 660.59 41.42 663.83 44.48C667.07 47.54 670.22 50.69 673.28 53.93L684.62 66.35C675.62 72.65 664.46 75.8 651.14 75.8H650.33L649.79 75.53H646.55L646.01 75.26H642.77C646.37 80.3 648.17 84.26 648.17 87.14V151.67C640.07 155.81 635.21 162.74 633.59 172.46C638.27 169.04 643.58 167.33 649.52 167.33C659.6 167.33 668.33 171.65 675.71 180.29C676.07 180.65 676.34 181.01 676.52 181.37C676.88 181.73 677.24 182.09 677.6 182.45L680.03 184.61C689.57 172.91 701.99 167.06 717.29 167.06C724.67 167.06 731.24 168.77 737 172.19L735.11 168.41C734.93 168.05 734.84 167.69 734.84 167.33L734.57 167.06V166.79L734.3 166.25C734.12 166.07 734.03 165.62 734.03 164.9L733.76 164.63C733.58 163.73 733.49 163.28 733.49 163.28C733.49 163.1 733.4 162.92 733.22 162.74V163.01L732.95 162.2V161.66C732.77 161.48 732.68 161.21 732.68 160.85V83.63C732.86 82.55 733.49 81.29 734.57 79.85V79.31C734.93 78.95 735.2 78.59 735.38 78.23C735.74 77.87 736.1 77.51 736.46 77.15L736.73 76.61L737.27 76.07V72.02ZM702.71 158.69H701.36L701.09 158.96H700.28L699.74 159.5H699.47L698.93 160.04C695.33 156.44 691.01 153.38 685.97 150.86C683.63 150.14 681.83 149.69 680.57 149.51C679.31 149.15 678.41 148.88 677.87 148.7C676.61 148.34 675.98 148.16 675.98 148.16V82.28C681.92 81.02 687.32 78.05 692.18 73.37L702.98 84.44V158.42L702.71 158.69ZM734.57 80.12L735.11 79.04C734.75 79.4 734.57 79.67 734.57 79.85V80.12ZM734.3 79.58V79.31V79.85C734.12 79.85 734.12 79.76 734.3 79.58Z" fill="white"/>
<path d="M568.1 305.8H564.59L564.32 306.07H562.16L561.89 306.34H560.81C555.41 306.34 552.71 304.54 552.71 300.94V238.03C557.57 233.17 560 228.58 560 224.26L560.27 223.72V221.02L560.54 220.48V216.7C553.34 219.76 548.75 221.29 546.77 221.29C542.63 221.29 536.78 216.07 529.22 205.63L497.36 232.36C497.18 227.32 495.65 222.55 492.77 218.05C491.51 216.07 489.8 214.09 487.64 212.11C485.66 209.95 483.23 207.61 480.35 205.09L452.81 232.63V234.52H454.16L454.7 234.79C460.46 234.79 464.96 237.49 468.2 242.89V303.64C461.18 307.78 456.95 313.36 455.51 320.38H458.21L458.48 320.11H459.56L459.83 319.84H461.18L461.45 319.57H462.26C472.34 319.57 482.24 324.16 491.96 333.34L517.07 315.25C515.81 313.63 514.37 312.1 512.75 310.66C511.31 309.04 509.6 307.6 507.62 306.34C506.54 305.44 505.1 304.54 503.3 303.64C501.5 302.74 499.52 301.84 497.36 300.94V244.24L508.43 235.33C509.87 237.31 511.49 238.93 513.29 240.19C515.09 241.45 517.43 242.44 520.31 243.16H520.04L521.12 243.7L521.39 243.97H521.93C522.29 244.15 522.83 244.24 523.55 244.24V314.98C523.55 320.02 525.71 324.25 530.03 327.67C532.37 329.47 534.8 330.91 537.32 331.99C539.84 333.07 542.36 333.7 544.88 333.88L568.1 305.8ZM679.701 222.91V219.4C677.361 220.84 675.561 221.83 674.301 222.37C673.041 222.73 671.961 222.91 671.061 222.91C669.621 222.91 667.551 222.46 664.851 221.56C659.991 219.76 654.591 214.45 648.651 205.63C633.351 218.23 616.161 224.53 597.081 224.53C594.021 224.53 591.231 224.35 588.711 223.99C586.191 223.63 583.851 223.09 581.691 222.37V225.34L581.961 225.88V225.07C581.961 225.43 581.961 225.61 581.961 225.61C582.141 225.61 582.231 225.7 582.231 225.88C582.231 226.42 582.411 226.87 582.771 227.23L583.311 228.31L583.581 228.58V229.12L584.121 229.66C584.121 230.02 584.211 230.2 584.391 230.2L585.201 232.63V232.36L585.471 302.83C577.551 306.61 573.231 312.37 572.511 320.11L577.911 319.3C580.071 318.76 581.871 318.49 583.311 318.49C591.051 318.49 599.781 323.53 609.501 333.61C622.461 321.19 639.291 314.98 659.991 314.98C664.131 314.98 669.621 315.7 676.461 317.14C671.601 312.64 669.171 307.33 669.171 301.21V239.11C670.071 238.75 670.971 238.03 671.871 236.95C672.951 235.87 674.121 234.61 675.381 233.17C676.461 231.37 677.361 229.93 678.081 228.85C678.801 227.59 679.161 226.42 679.161 225.34L679.431 224.8V223.45L679.701 222.91ZM635.961 307.15L632.721 308.77C628.041 304.45 624.801 301.93 623.001 301.21C623.001 301.21 622.641 301.12 621.921 300.94C621.381 300.76 620.841 300.58 620.301 300.4H620.571L619.491 299.86C617.511 299.86 615.801 299.41 614.361 298.51V233.44C618.141 233.44 621.561 232.54 624.621 230.74C628.941 237.4 634.161 240.82 640.281 241V306.34H640.011C638.391 306.88 637.041 307.15 635.961 307.15ZM752.052 310.39L746.382 303.91L743.682 306.88C742.602 306.16 741.612 305.53 740.712 304.99C739.812 304.27 739.092 303.73 738.552 303.37H738.822C738.642 303.19 738.372 303.1 738.012 303.1C737.832 302.92 737.652 302.74 737.472 302.56C736.932 302.56 736.392 302.29 735.852 301.75C735.672 301.57 735.312 301.39 734.772 301.21C734.232 301.03 733.962 300.94 733.962 300.94C732.162 300.94 730.632 300.31 729.372 299.05V234.52C732.792 234.7 735.762 235.06 738.282 235.6C740.982 235.96 743.322 236.5 745.302 237.22H745.572L745.842 237.49L749.082 239.11C748.002 232.63 747.462 227.41 747.462 223.45H747.192C747.192 219.85 747.462 217.51 748.002 216.43C748.002 215.71 748.092 215.17 748.272 214.81C748.272 214.63 748.272 214.18 748.272 213.46C748.452 212.56 748.542 212.02 748.542 211.84C744.942 214.36 741.612 215.62 738.552 215.62L738.012 215.35H729.372V192.94C729.372 191.5 729.732 189.25 730.452 186.19C730.632 185.83 730.722 185.38 730.722 184.84C730.722 184.3 730.722 184.21 730.722 184.57C731.082 183.49 731.262 182.59 731.262 181.87C731.442 181.15 731.622 180.61 731.802 180.25L732.072 179.98V176.2C722.712 187.72 712.812 193.48 702.372 193.48V193.21H701.022L700.752 192.67L698.862 193.21C698.862 194.47 699.042 195.28 699.402 195.64V195.91C699.582 196.27 699.672 196.72 699.672 197.26C699.852 197.62 700.032 197.98 700.212 198.34C700.392 198.7 700.482 199.06 700.482 199.42C700.662 199.6 700.752 199.69 700.752 199.69V202.39L701.022 202.93V215.35H698.862C696.702 215.35 695.442 215.44 695.082 215.62C694.182 215.44 692.922 215.08 691.302 214.54C689.682 214 687.702 213.1 685.362 211.84C685.362 216.52 685.722 219.85 686.442 221.83V224.53L686.712 225.34V226.96C686.532 227.68 686.352 228.31 686.172 228.85C686.172 229.39 686.172 229.93 686.172 230.47V232.63C685.992 232.99 685.902 233.53 685.902 234.25L685.632 234.79V235.6C685.452 235.96 685.362 236.5 685.362 237.22C685.362 237.76 685.362 238.39 685.362 239.11L688.332 237.49H688.872L689.412 236.95C690.852 236.59 691.662 236.32 691.842 236.14C693.462 235.78 694.902 235.24 696.162 234.52H701.022V302.29C696.522 304.63 693.012 308.68 690.492 314.44C688.872 318.04 688.062 320.2 688.062 320.92V324.7C690.222 321.46 693.462 319.84 697.782 319.84C706.782 319.84 716.142 324.43 725.862 333.61L752.052 310.39Z" fill="white"/>
<path d="M139.05 444.96L138.51 444.42C137.43 443.34 136.89 442.62 136.89 442.26L136.62 322.92C136.62 318.42 135.72 314.28 133.92 310.5C132.3 306.54 129.96 303.12 126.9 300.24C124.02 297.36 120.6 295.2 116.64 293.76C112.68 292.14 108.36 291.33 103.68 291.33L25.65 294.03V294.57H23.49V294.84H23.22C19.62 294.84 16.02 294.66 12.42 294.3C8.82 293.76 5.22 292.95 1.62 291.87V293.22L1.35 293.49V295.38L1.08 295.65V297L0.81 297.54V298.62C0.81 304.2 1.89 308.61 4.05 311.85C8.73 319.41 21.69 323.19 42.93 323.19H53.46C45.72 325.35 39.15 329.13 33.75 334.53C26.37 341.19 22.68 349.47 22.68 359.37V360.72L22.95 360.99V362.34C10.71 363.96 4.59 370.71 4.59 382.59C4.59 386.19 4.86 389.25 5.4 391.77C6.12 394.29 7.38 396.27 9.18 397.71V397.44C9.9 397.98 10.8 398.88 11.88 400.14C13.14 401.22 14.31 402.21 15.39 403.11C15.39 397.17 17.64 394.2 22.14 394.2L22.68 393.93H23.22V432.81C22.86 433.71 22.5 434.7 22.14 435.78C21.78 436.86 21.69 437.58 21.87 437.94C21.51 438.3 21.24 438.84 21.06 439.56C21.06 440.1 20.97 440.46 20.79 440.64H23.22L23.49 440.37H24.57L24.84 440.1C27.18 439.74 30.6 438.12 35.1 435.24C47.7 426.78 54 417.15 54 406.35V334.8C54 329.76 55.71 326.07 59.13 323.73L58.59 322.92C59.31 322.74 60.12 322.65 61.02 322.65V432.81C48.6 433.17 37.44 436.5 27.54 442.8C17.64 449.1 10.08 457.92 4.86 469.26C16.56 462.42 29.16 459 42.66 459C56.34 459 70.38 462.78 84.78 470.34C96.66 457.92 114.57 450.09 138.51 446.85L139.05 444.96ZM71.01 432.54V402.03C74.25 400.59 77.04 399.87 79.38 399.87C82.98 398.97 85.23 398.52 86.13 398.52L87.48 399.06C92.16 399.06 98.37 399.96 106.11 401.76V443.88C96.57 438.12 84.87 434.34 71.01 432.54ZM92.61 352.89H81.54C76.68 352.89 73.17 351.81 71.01 349.65V321.03C74.61 321.21 78.12 321.3 81.54 321.3C85.14 321.3 88.65 321.3 92.07 321.3C94.23 321.48 95.94 321.57 97.2 321.57C98.46 321.57 99.27 321.57 99.63 321.57L99.9 321.84C104.04 324 106.11 326.34 106.11 328.86V349.92C97.65 351.9 93.15 352.89 92.61 352.89ZM86.94 388.53C86.94 388.53 85.95 388.71 83.97 389.07C81.99 389.25 80.19 389.52 78.57 389.88C74.97 390.78 72.45 391.23 71.01 391.23V361.26C74.07 362.16 77.49 362.61 81.27 362.61C81.63 362.79 82.17 362.88 82.89 362.88H91.8C93.42 362.88 96.03 362.52 99.63 361.8C101.25 361.62 102.6 361.35 103.68 360.99C104.22 360.99 104.67 360.99 105.03 360.99C105.39 360.81 105.75 360.72 106.11 360.72V391.5C99.27 389.52 92.88 388.53 86.94 388.53ZM9.45 397.98H9.72C9.54 397.98 9.36 397.98 9.18 397.98C9.18 397.8 9.18 397.71 9.18 397.71L9.45 397.98Z" fill="white"/>
<path d="M230.886 387.72C229.086 385.2 227.106 382.23 224.946 378.81C222.966 375.21 220.806 371.34 218.466 367.2C215.946 362.52 213.966 358.29 212.526 354.51C211.086 350.73 209.916 347.22 209.016 343.98C191.196 355.86 175.176 361.8 160.956 361.8H159.876L159.066 361.53H158.256L157.986 361.26H156.366L153.936 358.83V362.61C156.816 368.91 158.256 373.41 158.256 376.11V441.45C154.656 444.15 152.226 446.31 150.966 447.93C150.786 448.11 150.246 448.83 149.346 450.09C148.626 451.35 147.636 452.97 146.376 454.95V454.68C146.016 455.04 145.656 455.58 145.296 456.3C144.936 456.84 144.576 457.56 144.216 458.46C146.376 458.1 148.536 457.83 150.696 457.65C152.856 457.29 155.016 457.11 157.176 457.11C162.936 457.11 169.776 457.92 177.696 459.54C182.376 460.44 186.516 461.7 190.116 463.32C193.716 465.12 197.406 467.01 201.186 468.99L203.886 470.34L228.456 443.34L221.706 437.13L215.226 443.88C211.086 441.9 206.586 440.19 201.726 438.75C197.046 437.31 191.916 436.14 186.336 435.24V414.99C188.316 413.55 190.116 412.38 191.736 411.48C202.716 405 211.356 399.96 217.656 396.36C224.136 392.58 228.456 390.15 230.616 389.07L230.886 387.72ZM194.976 382.59C196.236 385.29 197.316 387.54 198.216 389.34C199.296 390.96 200.196 392.31 200.916 393.39L186.336 402.84V368.28L188.496 367.74C189.396 370.26 190.386 372.78 191.466 375.3C192.546 377.82 193.716 380.25 194.976 382.59Z" fill="white"/>
<path d="M352.086 359.91V357.75H350.196L349.656 358.29H349.116C348.396 359.01 347.226 359.37 345.606 359.37C345.426 359.55 344.976 359.64 344.256 359.64C342.996 359.64 342.276 359.55 342.096 359.37C339.216 359.37 335.796 357.21 331.836 352.89C329.856 350.73 328.146 348.75 326.706 346.95C325.446 345.15 324.366 343.53 323.466 342.09L283.236 374.22C283.236 369.9 282.966 366.21 282.426 363.15C282.066 359.91 281.436 357.21 280.536 355.05C278.196 349.29 273.246 344.61 265.686 341.01L236.796 371.52V373.68H239.496L239.766 373.41H241.926L242.196 373.14C245.076 373.14 247.686 373.86 250.026 375.3C252.546 376.74 253.806 378.63 253.806 380.97V434.7C248.946 436.86 244.896 440.55 241.656 445.77C238.416 450.99 236.796 456.12 236.796 461.16C237.336 460.8 238.056 460.35 238.956 459.81C239.856 459.27 240.486 458.91 240.846 458.73C242.106 458.19 242.826 457.92 243.006 457.92L246.786 456.03H246.516C247.776 455.67 248.856 455.4 249.756 455.22C250.836 454.86 251.826 454.5 252.726 454.14H253.806V493.83L253.536 494.37V495.45C253.356 496.35 253.266 496.89 253.266 497.07C253.266 497.25 253.176 497.52 252.996 497.88C252.636 500.94 251.016 504.45 248.136 508.41L249.216 509.76C251.016 508.86 252.816 507.87 254.616 506.79C256.596 505.71 258.126 504.81 259.206 504.09V504.36C268.926 499.68 276.486 497.34 281.886 497.34C282.786 497.34 283.866 497.43 285.126 497.61C286.386 497.79 287.556 498.06 288.636 498.42C285.036 493.02 283.236 487.8 283.236 482.76V461.16C285.036 462.6 286.566 463.95 287.826 465.21C289.266 466.65 290.526 468 291.606 469.26L291.336 468.99L291.606 469.53L292.686 470.34C307.086 459.36 321.216 453.87 335.076 453.87H336.426C337.326 454.41 338.406 454.77 339.666 454.95C340.926 454.95 342.366 454.95 343.986 454.95L343.176 453.33C341.376 450.81 340.476 449.1 340.476 448.2C339.936 447.48 339.666 446.58 339.666 445.5V376.11C342.726 375.21 345.516 373.05 348.036 369.63C350.736 366.21 352.086 362.97 352.086 359.91ZM292.146 434.97C288.006 433.17 285.306 432.18 284.046 432L283.236 385.56L300.786 371.52C304.026 374.76 307.176 376.38 310.236 376.38V447.66L308.346 448.47C304.566 443.07 299.166 438.57 292.146 434.97Z" fill="white"/>
<path d="M445.572 361.8V355.59C441.972 358.83 439.092 360.45 436.932 360.45C430.632 360.45 425.862 355.32 422.622 345.06L420.462 345.33V346.14C416.322 352.62 412.542 357.57 409.122 360.99C408.042 362.25 407.052 363.42 406.152 364.5C405.252 365.4 404.352 366.3 403.452 367.2L401.022 370.44C397.962 358.02 391.662 349.38 382.122 344.52C375.822 356.76 367.092 366.12 355.932 372.6C356.472 372.78 357.282 373.05 358.362 373.41C359.622 373.59 360.432 373.77 360.792 373.95C361.872 374.31 362.682 374.58 363.222 374.76C365.202 375.66 366.912 376.74 368.352 378C369.972 379.08 371.412 380.52 372.672 382.32V438.21L372.402 438.48H371.592L370.782 439.29L371.322 439.02C370.782 439.38 370.062 439.83 369.162 440.37C368.442 440.91 367.542 441.72 366.462 442.8C360.882 448.38 358.092 453.96 358.092 459.54L361.602 458.19C363.042 457.83 364.392 457.47 365.652 457.11C367.092 456.57 368.712 456.3 370.512 456.3C379.332 456.3 388.782 461.07 398.862 470.61L426.672 443.61L420.732 437.13L415.872 441.99C412.092 438.21 408.402 436.14 404.802 435.78H405.072C404.172 435.6 403.362 435.42 402.642 435.24C401.922 435.06 401.382 434.88 401.022 434.7V386.1L408.312 378.54C413.172 383.22 418.212 385.56 423.432 385.56C429.912 385.56 435.222 383.31 439.362 378.81C443.502 374.31 445.572 368.64 445.572 361.8Z" fill="white"/>
<path d="M536.482 387.72C534.682 385.2 532.702 382.23 530.542 378.81C528.562 375.21 526.402 371.34 524.062 367.2C521.542 362.52 519.562 358.29 518.122 354.51C516.682 350.73 515.512 347.22 514.612 343.98C496.792 355.86 480.772 361.8 466.552 361.8H465.472L464.662 361.53H463.852L463.582 361.26H461.962L459.532 358.83V362.61C462.412 368.91 463.852 373.41 463.852 376.11V441.45C460.252 444.15 457.822 446.31 456.562 447.93C456.382 448.11 455.842 448.83 454.942 450.09C454.222 451.35 453.232 452.97 451.972 454.95V454.68C451.612 455.04 451.252 455.58 450.892 456.3C450.532 456.84 450.172 457.56 449.812 458.46C451.972 458.1 454.132 457.83 456.292 457.65C458.452 457.29 460.612 457.11 462.772 457.11C468.532 457.11 475.372 457.92 483.292 459.54C487.972 460.44 492.112 461.7 495.712 463.32C499.312 465.12 503.002 467.01 506.782 468.99L509.482 470.34L534.052 443.34L527.302 437.13L520.822 443.88C516.682 441.9 512.182 440.19 507.322 438.75C502.642 437.31 497.512 436.14 491.932 435.24V414.99C493.912 413.55 495.712 412.38 497.332 411.48C508.312 405 516.952 399.96 523.252 396.36C529.732 392.58 534.052 390.15 536.212 389.07L536.482 387.72ZM500.572 382.59C501.832 385.29 502.912 387.54 503.812 389.34C504.892 390.96 505.792 392.31 506.512 393.39L491.932 402.84V368.28L494.092 367.74C494.992 370.26 495.982 372.78 497.062 375.3C498.142 377.82 499.312 380.25 500.572 382.59Z" fill="white"/>
<path d="M643.102 348.03L635.812 348.57C632.572 353.79 628.342 356.4 623.122 356.4C618.082 356.4 612.682 353.07 606.922 346.41C600.442 352.89 596.842 356.31 596.122 356.67C588.382 360.81 580.372 362.88 572.092 362.88C570.472 362.88 569.572 362.79 569.392 362.61C564.352 362.61 561.202 362.25 559.942 361.53C557.962 361.53 556.072 360.72 554.272 359.1C554.272 360 554.272 360.81 554.272 361.53C554.272 362.25 554.452 362.79 554.812 363.15V363.42L555.622 365.31C555.622 366.03 555.712 366.48 555.892 366.66V366.39C555.892 366.57 555.892 366.75 555.892 366.93C556.072 366.93 556.162 367.02 556.162 367.2L556.432 414.18L556.162 414.72C556.162 417.06 555.352 419.31 553.732 421.47L554.002 420.66L552.112 422.55L569.932 423.36C568.852 424.44 567.862 425.43 566.962 426.33C566.242 427.23 565.612 427.95 565.072 428.49L563.992 429.57C557.872 437.13 553.012 444.24 549.412 450.9C545.812 457.38 543.292 463.77 541.852 470.07H549.682C552.922 462.15 558.682 458.19 566.962 458.19C568.942 458.19 570.472 458.46 571.552 459C573.172 459 574.612 459.27 575.872 459.81C577.132 460.53 578.482 461.52 579.922 462.78L587.752 470.61C596.572 461.25 607.822 456.57 621.502 456.57H623.122C623.662 456.75 625.282 456.84 627.982 456.84C628.882 457.38 630.052 457.74 631.492 457.92C632.932 457.92 634.732 457.92 636.892 457.92C637.252 457.92 637.522 458.01 637.702 458.19H637.432C637.792 458.37 638.962 458.46 640.942 458.46L639.862 456.3C639.322 455.4 638.782 454.5 638.242 453.6C637.702 452.7 637.612 452.43 637.972 452.79L638.242 453.33C638.062 452.43 637.972 451.98 637.972 451.98C637.972 451.8 637.882 451.62 637.702 451.44V451.71L637.432 451.17V450.36C637.252 450.18 637.162 449.91 637.162 449.55V403.65C637.162 403.83 637.252 403.56 637.432 402.84C637.612 401.94 637.792 401.22 637.972 400.68V400.95C637.972 400.77 637.972 400.59 637.972 400.41C638.152 400.23 638.242 399.96 638.242 399.6L638.512 399.06V398.52L639.052 397.98V397.44L639.322 397.17C639.322 396.63 639.412 396.18 639.592 395.82C639.592 395.64 639.592 395.28 639.592 394.74C639.772 394.2 639.862 393.84 639.862 393.66L614.482 394.2C629.602 378.72 639.502 363.78 644.182 349.38L643.102 348.03ZM609.082 447.66H608.002C607.102 448.02 606.382 448.29 605.842 448.47C605.482 448.47 605.302 448.47 605.302 448.47L604.222 449.01C597.562 440.73 589.552 436.59 580.192 436.59C579.292 436.59 578.032 436.77 576.412 437.13C574.792 437.31 572.902 437.58 570.742 437.94C573.082 435.6 575.062 433.53 576.682 431.73C578.302 429.75 579.742 428.13 581.002 426.87L595.042 412.83H608.812L609.352 413.37V447.39L609.082 447.66ZM604.762 390.15C600.622 394.29 597.202 397.62 594.502 400.14C591.982 402.66 590.002 404.37 588.562 405.27H585.592V371.25C586.492 371.25 587.482 370.98 588.562 370.44H589.642C589.822 370.26 590.182 370.08 590.722 369.9C597.382 375.12 603.322 377.73 608.542 377.73C611.962 377.73 615.202 377.1 618.262 375.84C615.382 378.9 610.882 383.67 604.762 390.15Z" fill="white"/>
<path d="M54.81 566.82C49.77 567.18 45.72 567.45 42.66 567.63C39.6 567.81 37.35 567.99 35.91 568.17H18.09C14.13 568.17 11.25 567.99 9.45 567.63L9.99 567.9L7.83 567.63C7.65 567.99 7.56 568.26 7.56 568.44C7.56 568.62 7.47 569.25 7.29 570.33C7.29 575.19 4.86 582.48 0 592.2H2.97C3.33 592.2 3.87 592.2 4.59 592.2C5.49 592.2 6.57 592.11 7.83 591.93H27.27C32.85 591.93 37.8 592.2 42.12 592.74H41.85C43.83 593.1 45.09 593.28 45.63 593.28C46.17 593.28 46.98 593.37 48.06 593.55V591.66L48.6 592.47V591.66H48.33C48.33 590.94 48.24 590.4 48.06 590.04V588.15C48.06 581.85 50.49 575.19 55.35 568.17L54.81 566.82Z" fill="white"/>
<path d="M162.165 519.03L154.875 519.57C151.635 524.79 147.405 527.4 142.185 527.4C137.145 527.4 131.745 524.07 125.985 517.41C119.505 523.89 115.905 527.31 115.185 527.67C107.445 531.81 99.4345 533.88 91.1545 533.88C89.5345 533.88 88.6345 533.79 88.4545 533.61C83.4145 533.61 80.2645 533.25 79.0045 532.53C77.0245 532.53 75.1345 531.72 73.3345 530.1C73.3345 531 73.3345 531.81 73.3345 532.53C73.3345 533.25 73.5145 533.79 73.8745 534.15V534.42L74.6845 536.31C74.6845 537.03 74.7745 537.48 74.9545 537.66V537.39C74.9545 537.57 74.9545 537.75 74.9545 537.93C75.1345 537.93 75.2245 538.02 75.2245 538.2L75.4945 585.18L75.2245 585.72C75.2245 588.06 74.4145 590.31 72.7945 592.47L73.0645 591.66L71.1745 593.55L88.9945 594.36C87.9145 595.44 86.9245 596.43 86.0245 597.33C85.3045 598.23 84.6745 598.95 84.1345 599.49L83.0545 600.57C76.9345 608.13 72.0745 615.24 68.4745 621.9C64.8745 628.38 62.3545 634.77 60.9145 641.07H68.7445C71.9845 633.15 77.7445 629.19 86.0245 629.19C88.0045 629.19 89.5345 629.46 90.6145 630C92.2345 630 93.6745 630.27 94.9345 630.81C96.1945 631.53 97.5445 632.52 98.9845 633.78L106.815 641.61C115.635 632.25 126.885 627.57 140.565 627.57H142.185C142.725 627.75 144.345 627.84 147.045 627.84C147.945 628.38 149.115 628.74 150.555 628.92C151.995 628.92 153.795 628.92 155.955 628.92C156.315 628.92 156.585 629.01 156.765 629.19H156.495C156.855 629.37 158.025 629.46 160.005 629.46L158.925 627.3C158.385 626.4 157.845 625.5 157.305 624.6C156.765 623.7 156.675 623.43 157.035 623.79L157.305 624.33C157.125 623.43 157.035 622.98 157.035 622.98C157.035 622.8 156.945 622.62 156.765 622.44V622.71L156.495 622.17V621.36C156.315 621.18 156.225 620.91 156.225 620.55V574.65C156.225 574.83 156.315 574.56 156.495 573.84C156.675 572.94 156.855 572.22 157.035 571.68V571.95C157.035 571.77 157.035 571.59 157.035 571.41C157.215 571.23 157.305 570.96 157.305 570.6L157.575 570.06V569.52L158.115 568.98V568.44L158.385 568.17C158.385 567.63 158.475 567.18 158.655 566.82C158.655 566.64 158.655 566.28 158.655 565.74C158.835 565.2 158.925 564.84 158.925 564.66L133.545 565.2C148.665 549.72 158.565 534.78 163.245 520.38L162.165 519.03ZM128.145 618.66H127.065C126.165 619.02 125.445 619.29 124.905 619.47C124.545 619.47 124.365 619.47 124.365 619.47L123.285 620.01C116.625 611.73 108.615 607.59 99.2545 607.59C98.3545 607.59 97.0945 607.77 95.4745 608.13C93.8545 608.31 91.9645 608.58 89.8045 608.94C92.1445 606.6 94.1245 604.53 95.7445 602.73C97.3645 600.75 98.8045 599.13 100.065 597.87L114.105 583.83H127.875L128.415 584.37V618.39L128.145 618.66ZM123.825 561.15C119.685 565.29 116.265 568.62 113.565 571.14C111.045 573.66 109.065 575.37 107.625 576.27H104.655V542.25C105.555 542.25 106.545 541.98 107.625 541.44H108.705C108.885 541.26 109.245 541.08 109.785 540.9C116.445 546.12 122.385 548.73 127.605 548.73C131.025 548.73 134.265 548.1 137.325 546.84C134.445 549.9 129.945 554.67 123.825 561.15Z" fill="white"/>
<path d="M254.616 558.72C252.816 556.2 250.836 553.23 248.676 549.81C246.696 546.21 244.536 542.34 242.196 538.2C239.676 533.52 237.696 529.29 236.256 525.51C234.816 521.73 233.646 518.22 232.746 514.98C214.926 526.86 198.906 532.8 184.686 532.8H183.606L182.796 532.53H181.986L181.716 532.26H180.096L177.666 529.83V533.61C180.546 539.91 181.986 544.41 181.986 547.11V612.45C178.386 615.15 175.956 617.31 174.696 618.93C174.516 619.11 173.976 619.83 173.076 621.09C172.356 622.35 171.366 623.97 170.106 625.95V625.68C169.746 626.04 169.386 626.58 169.026 627.3C168.666 627.84 168.306 628.56 167.946 629.46C170.106 629.1 172.266 628.83 174.426 628.65C176.586 628.29 178.746 628.11 180.906 628.11C186.666 628.11 193.506 628.92 201.426 630.54C206.106 631.44 210.246 632.7 213.846 634.32C217.446 636.12 221.136 638.01 224.916 639.99L227.616 641.34L252.186 614.34L245.436 608.13L238.956 614.88C234.816 612.9 230.316 611.19 225.456 609.75C220.776 608.31 215.646 607.14 210.066 606.24V585.99C212.046 584.55 213.846 583.38 215.466 582.48C226.446 576 235.086 570.96 241.386 567.36C247.866 563.58 252.186 561.15 254.346 560.07L254.616 558.72ZM218.706 553.59C219.966 556.29 221.046 558.54 221.946 560.34C223.026 561.96 223.926 563.31 224.646 564.39L210.066 573.84V539.28L212.226 538.74C213.126 541.26 214.116 543.78 215.196 546.3C216.276 548.82 217.446 551.25 218.706 553.59Z" fill="white"/>
<path d="M363.667 529.02L361.507 531.72C358.627 531.72 355.747 530.37 352.867 527.67H353.137C352.777 527.31 352.327 526.95 351.787 526.59C351.427 526.23 351.067 525.87 350.707 525.51C349.447 524.43 348.367 523.44 347.467 522.54C346.567 521.64 345.757 520.83 345.037 520.11L338.827 513.63C338.827 513.81 338.647 513.54 338.287 512.82L310.207 485.01L303.457 478.26V478.53C300.037 473.85 297.697 469.62 296.437 465.84C291.937 468.18 287.347 469.98 282.667 471.24C277.987 472.5 273.307 473.13 268.627 473.13C266.827 473.13 265.837 473.04 265.657 472.86C264.037 472.86 262.417 472.05 260.797 470.43V474.21C266.557 480.87 270.607 485.19 272.947 487.17C274.567 488.61 276.007 489.87 277.267 490.95C278.707 491.85 279.787 492.57 280.507 493.11C283.747 495.63 286.987 498.42 290.227 501.48C293.467 504.54 296.617 507.69 299.677 510.93L311.017 523.35C302.017 529.65 290.857 532.8 277.537 532.8H276.727L276.187 532.53H272.947L272.407 532.26H269.167C272.767 537.3 274.567 541.26 274.567 544.14V608.67C266.467 612.81 261.607 619.74 259.987 629.46C264.667 626.04 269.977 624.33 275.917 624.33C285.997 624.33 294.727 628.65 302.107 637.29C302.467 637.65 302.737 638.01 302.917 638.37C303.277 638.73 303.637 639.09 303.997 639.45L306.427 641.61C315.967 629.91 328.387 624.06 343.687 624.06C351.067 624.06 357.637 625.77 363.397 629.19L361.507 625.41C361.327 625.05 361.237 624.69 361.237 624.33L360.967 624.06V623.79L360.697 623.25C360.517 623.07 360.427 622.62 360.427 621.9L360.157 621.63C359.977 620.73 359.887 620.28 359.887 620.28C359.887 620.1 359.797 619.92 359.617 619.74V620.01L359.347 619.2V618.66C359.167 618.48 359.077 618.21 359.077 617.85V540.63C359.257 539.55 359.887 538.29 360.967 536.85V536.31C361.327 535.95 361.597 535.59 361.777 535.23C362.137 534.87 362.497 534.51 362.857 534.15L363.127 533.61L363.667 533.07V529.02ZM329.107 615.69H327.757L327.487 615.96H326.677L326.137 616.5H325.867L325.327 617.04C321.727 613.44 317.407 610.38 312.367 607.86C310.027 607.14 308.227 606.69 306.967 606.51C305.707 606.15 304.807 605.88 304.267 605.7C303.007 605.34 302.377 605.16 302.377 605.16V539.28C308.317 538.02 313.717 535.05 318.577 530.37L329.377 541.44V615.42L329.107 615.69ZM360.967 537.12L361.507 536.04C361.147 536.4 360.967 536.67 360.967 536.85V537.12ZM360.697 536.58V536.31V536.85C360.517 536.85 360.517 536.76 360.697 536.58Z" fill="white"/>
</svg>
